<?xml version="1.0" standalone="no"?>
<!DOCTYPE svg PUBLIC "-//W3C//DTD SVG 1.1//EN" "http://www.w3.org/Graphics/SVG/1.1/DTD/svg11.dtd" >
<!--
2013-9-30: Created.
-->
<svg>
<metadata>
Created by iconfont
</metadata>
<defs>

<font id="iconfont" horiz-adv-x="1024" >
  <font-face
    font-family="iconfont"
    font-weight="500"
    font-stretch="normal"
    units-per-em="1024"
    ascent="896"
    descent="-128"
  />
    <missing-glyph />
    
    <glyph glyph-name="x" unicode="x" horiz-adv-x="1001"
d="M281 543q-27 -1 -53 -1h-83q-18 0 -36.5 -6t-32.5 -18.5t-23 -32t-9 -45.5v-76h912v41q0 16 -0.5 30t-0.5 18q0 13 -5 29t-17 29.5t-31.5 22.5t-49.5 9h-133v-97h-438v97zM955 310v-52q0 -23 0.5 -52t0.5 -58t-10.5 -47.5t-26 -30t-33 -16t-31.5 -4.5q-14 -1 -29.5 -0.5
t-29.5 0.5h-32l-45 128h-439l-44 -128h-29h-34q-20 0 -45 1q-25 0 -41 9.5t-25.5 23t-13.5 29.5t-4 30v167h911zM163 247q-12 0 -21 -8.5t-9 -21.5t9 -21.5t21 -8.5q13 0 22 8.5t9 21.5t-9 21.5t-22 8.5zM316 123q-8 -26 -14 -48q-5 -19 -10.5 -37t-7.5 -25t-3 -15t1 -14.5
t9.5 -10.5t21.5 -4h37h67h81h80h64h36q23 0 34 12t2 38q-5 13 -9.5 30.5t-9.5 34.5q-5 19 -11 39h-368zM336 498v228q0 11 2.5 23t10 21.5t20.5 15.5t34 6h188q31 0 51.5 -14.5t20.5 -52.5v-227h-327z" />
    

    
    <glyph glyph-name="browse" unicode="&#59269;" d="M511.697 734.528c-277.29 0-502.084-350.227-502.084-350.227s224.794-350.225 502.084-350.225c285.406-7.368 502.093 350.224 502.093 350.224s-224.794 350.227-502.093 350.227v0zM510.981 104.56c-236.411 0-428.139 280.448-428.139 280.448s191.728 280.482 428.139 280.482c236.446 0 428.104-280.483 428.104-280.483s-191.658-280.447-428.104-280.447v0zM508.759 560.507c-99.054 0-179.316-78.87-179.316-176.205s80.262-176.207 179.316-176.207c99.016 0 179.278 78.872 179.278 176.207s-80.262 176.205-179.278 176.205v0zM508.759 278.583c-59.392 0-107.589 47.287-107.589 105.719 0 58.361 48.166 105.726 107.589 105.726 59.461 0 107.553-47.327 107.553-105.726-0.001-58.432-48.091-105.719-107.553-105.719v0zM508.759 278.583z"  horiz-adv-x="1024" />

    
    <glyph glyph-name="setting" unicode="&#59050;" d="M923.544 454.101h-41.258c-18.895 0-38.907 14.777-44.526 32.802l-23.67 57.513c-8.939 16.668-5.257 41.184 8.020 54.557l29.266 29.216c13.421 13.422 13.421 35.272 0 48.645l-48.647 48.548c-13.349 13.373-35.2 13.373-48.597 0l-29.266-29.216c-13.275-13.324-37.887-17.006-54.556-8.042l-57.463 23.643c-17.976 5.573-32.802 25.631-32.802 44.527l-0 41.233c0 18.884-15.531 34.387-34.352 34.387h-68.68c-18.921 0-34.425-15.504-34.425-34.387v-41.233c0-18.896-14.706-38.954-32.753-44.527l-57.537-23.643c-16.691-8.963-41.158-5.329-54.506 8.042l-29.338 29.216c-13.374 13.373-35.225 13.373-48.549 0l-48.573-48.549c-13.397-13.373-13.397-35.223 0-48.596l29.192-29.266c13.397-13.373 17.031-37.889 8.042-54.557l-23.643-57.561c-5.62-18.025-25.631-32.802-44.552-32.802l-41.209 0.048c-18.895 0-34.376-15.456-34.376-34.352v-68.705c0-18.897 15.481-34.4 34.376-34.4h41.209c18.921-0.046 38.907-14.779 44.478-32.801l23.717-57.513c8.916-16.714 5.329-41.33-8.042-54.608l-29.265-29.211c-13.324-13.374-13.324-35.229 0-48.649l48.646-48.596c13.323-13.322 35.175-13.322 48.549 0l29.287 29.263c13.302 13.328 37.842 16.961 54.437 7.947l57.658-23.646c18.047-5.618 32.753-25.631 32.753-44.573v-41.087c0-18.849 15.457-34.352 34.425-34.352h68.68c18.823 0 34.352 15.503 34.352 34.352v41.087c0 18.942 14.825 38.954 32.802 44.573l57.56 23.646c16.644 9.015 41.231 5.382 54.604-7.947l29.12-29.263c13.397-13.322 35.248-13.322 48.597 0l48.646 48.596c13.421 13.42 13.421 35.275 0 48.649l-29.266 29.211c-13.276 13.278-16.958 37.894-8.020 54.608l23.67 57.513c5.619 18.021 25.729 32.755 44.526 32.755h41.258c18.871 0 34.302 15.455 34.302 34.398v68.753c0.001 18.896-15.43 34.353-34.301 34.353M683.151 385.446c0-94.92-76.893-171.761-171.714-171.761-94.892 0-171.785 76.841-171.785 171.761 0 94.818 76.892 171.711 171.785 171.711 94.821 0 171.714-76.893 171.714-171.711z"  horiz-adv-x="1024" />

    
    <glyph glyph-name="copy" unicode="&#58889;" d="M215.065 125.831h-44.575v660.075h562.728v-36.666h34.351v36.666s0 36.675-44.585 36.675h-552.494c-32.177 0-36.399-36.675-36.399-36.675v-660.074s-1.399-36.67 36.399-36.67h44.574l0.001 36.669zM316.505-53.427c-44.576 0-44.576 36.666-44.576 36.666v692.661s0 36.666 44.576 36.666h585.823c44.58 0 44.58-36.666 44.58-36.666v-476.724l-302.856-252.603h-327.548zM304.224-20.854h339.828l267.487 220.030v476.724h-607.314v-696.754zM639.599-52.073c-1.71 0-3.443 0.281-5.091 0.851-4.965 1.725-23.778 25.868-23.778 30.368v220.030s0 36.666 44.579 36.666h291.6v-36.666l-297.903-247.984c-2.541-2.137-5.938-3.265-9.408-3.265M644.052 199.177v-220.030l267.487 220.030h-267.487zM822.378 455.869h-295.248v36.674h295.248v-36.674zM822.378 345.857h-295.248v36.67h295.248v-36.67zM644.052 602.554h-72.338v-36.67h72.338v36.67zM393.397 492.543h89.158v-36.674h-89.158v36.674zM393.397 382.527h89.158v-36.67h-89.158v36.67z"  horiz-adv-x="1024" />

    
    <glyph glyph-name="nextMonth" unicode="&#58990;" d="M835.356 390.815l-440.517 440.517c-3.438 3.439-9.015 3.439-12.453 0l-60.541-60.541 379.976-379.976c3.438-3.438 3.438-9.014 0-12.453l-379.977-379.977 60.541-60.541c3.438-3.438 9.015-3.438 12.454 0l440.517 440.518c3.438 3.438 3.438 9.014 0 12.453z"  horiz-adv-x="1024" />

    
    <glyph glyph-name="more" unicode="&#58895;" d="M618.839 725.178c0-59.009-47.839-106.86-106.846-106.86-58.992 0-106.831 47.851-106.831 106.86 0 59.019 47.84 106.859 106.831 106.859 59.008 0 106.846-47.84 106.846-106.859zM618.839 370.627c0-59.003-47.839-106.855-106.846-106.855-58.992 0-106.831 47.846-106.831 106.855 0 59.020 47.84 106.871 106.831 106.871 59.008 0 106.846-47.851 106.846-106.871zM618.839 43.349c0-59.003-47.839-106.841-106.846-106.841-58.992 0-106.831 47.832-106.831 106.841 0 59.026 47.84 106.876 106.831 106.876 59.008-0.005 106.846-47.85 106.846-106.876z"  horiz-adv-x="1024" />

    
    <glyph glyph-name="Mobilephone" unicode="&#58985;" d="M731.6849717773438 834H292.2669713867187A63.54682822265625 63.54682822265625 0 0 1 228.75669599609375 770.4714486328126v-772.9246204101563a63.54682822265625 63.54682822265625 0 0 1 63.510275390625-63.54682822265625h439.41800039062497a63.54682822265625 63.54682822265625 0 0 1 63.54682822265625 63.54682822265625V770.4714486328126A63.565104199218744 63.565104199218744 0 0 1 731.6849717773438 834zM511.96683359375004 5.4787584960937465a60.860206054687495 60.860206054687495 0 1 0 0.0182759765625 121.73868896484375 60.860206054687495 60.860206054687495 0 0 0-0.0182759765625-121.73868896484375z m185.3037931640625 177.3535869140625H326.6630404296875V733.4070342773438h370.5893103515625v-550.5746888671874z"  horiz-adv-x="1024" />

    
    <glyph glyph-name="data" unicode="&#59049;" d="M470.080 469.312h-83.776v-85.312h83.776v85.312zM805.248 469.312h-83.776v-85.312h83.776v85.312zM637.696 469.312h-83.776v-85.312h83.776v85.312zM302.528 469.312h-83.776v-85.312h83.776v85.312zM901.888 790.080h-70.912v-35.328c0-58.496-47.616-105.92-106.368-105.92-0.038-0-0.083-0-0.128-0-58.562 0-106.058 47.383-106.239 105.903l-0 35.345h-212.544v-35.328c0-58.496-47.616-105.92-106.368-105.92-0.076-0-0.166-0-0.256-0-58.537 0-106.003 47.399-106.112 105.91l-0 35.338h-70.848c-39.168 0-70.912-31.616-70.912-70.656v-776.832c0-38.976 31.744-70.592 70.912-70.592h779.84c39.104 0 70.912 31.616 70.912 70.592v776.832c-0.109 39.046-31.787 70.656-70.848 70.656-0.045 0-0.090-0-0.135-0zM889.024-42.688h-754.048v597.376h754.048v-597.376zM723.584 684.16c38.592 0 69.824 31.168 69.824 69.504v72.832c0 38.4-31.232 69.504-69.824 69.504s-69.76-31.104-69.76-69.504v-72.832c-0.064-38.4 31.168-69.504 69.76-69.504zM298.24 684.16c0.019-0 0.042-0 0.064-0 38.437 0 69.614 31.087 69.759 69.49l0 72.846c-0.145 38.417-31.322 69.504-69.76 69.504-0.023 0-0.045-0-0.068-0-38.588 0-69.82-31.104-69.82-69.504v-72.832c0-38.4 31.232-69.504 69.824-69.504zM805.248 298.688h-83.776v-85.312h83.776v85.312zM805.248 128h-83.776v-85.312h83.776v85.312zM637.696 298.688h-83.776v-85.312h83.776v85.312zM637.696 128h-83.776v-85.312h83.776v85.312zM470.080 298.688h-83.776v-85.312h83.776v85.312zM470.080 128h-83.776v-85.312h83.776v85.312zM302.528 298.688h-83.776v-85.312h83.776v85.312zM302.528 128h-83.776v-85.312h83.776v85.312z"  horiz-adv-x="1024" />

    
    <glyph glyph-name="Activitylist" unicode="&#59188;" d="M928.251 74.62h-576.399c-17.7 0-32 15.498-32 34.499v28.14c0 19.098 14.3 34.499 32 34.499h576.399c17.7 0 32-15.498 32-34.499v-28.14c0-19.098-14.403-34.499-32-34.499zM928.251 343.112h-576.399c-17.7 0-32 15.498-32 34.499v28.14c0 19.098 14.3 34.499 32 34.499h576.399c17.7 0 32-15.498 32-34.499v-28.14c0-19.098-14.403-34.499-32-34.499zM928.251 611.605h-576.399c-17.7 0-32 15.498-32 34.499v28.14c0 19.098 14.3 34.499 32 34.499h576.399c17.7 0 32-15.498 32-34.499v-28.14c0-19.098-14.403-34.499-32-34.499zM159.749 59.26h-64c-17.7 0-32 15.498-32 34.499v58.86c0 19.098 14.3 34.499 32 34.499h64c17.7 0 32-15.498 32-34.499v-58.86c0-19.098-14.3-34.499-32-34.499zM159.749 327.747h-64c-17.7 0-32 15.498-32 34.499v58.86c0 19.098 14.3 34.499 32 34.499h64c17.7 0 32-15.498 32-34.499v-58.86c0-19.098-14.3-34.499-32-34.499zM159.749 596.245h-64c-17.7 0-32 15.498-32 34.499v58.86c0 19.098 14.3 34.499 32 34.499h64c17.7 0 32-15.498 32-34.499v-58.86c0-19.098-14.3-34.499-32-34.499z"  horiz-adv-x="1024" />

    
    <glyph glyph-name="Basicinformation" unicode="&#59189;" d="M901.52 763.709h-777.012c-33.125 0-59.955-26.83-59.955-59.955v-599.546c0-33.096 26.83-59.954 59.955-59.954h777.012c33.124 0 59.954 26.858 59.954 59.954v599.547c0 33.125-26.83 59.954-59.954 59.954zM499.823 254.067h-311.763v299.801h311.764v-299.8zM833.171 254.095h-273.393v59.954h273.393v-59.954zM833.171 374.005h-273.393v59.954h273.393v-59.955zM833.171 493.913h-273.393v59.955h273.393v-59.955z"  horiz-adv-x="1024" />

    
    <glyph glyph-name="datastatistics" unicode="&#59190;" d="M888.175 549.122l-80.756 80.68-127.042-117.29v-430.999h237.08v576.73l-29.282-109.121z m-422.998-148.93l-72.674 46.818v-365.497h237.084V465.619l-61.154-56.357c-15.558-14.485-36.146-22.49-57.345-22.49-16.32 0-32.03 4.646-45.911 13.42z m-123.455 79.455l-59.94 38.585L104.635 364.12v-282.607h237.088V479.647z m-237.088-456.93h812.823v-84.647H104.634v84.647z m56.205 448.62l116.368 101.804 215.5-138.712c5.643-3.507 11.974-5.339 18.38-5.339 8.235 0 16.47 3.051 22.952 8.998l274.832 253.78 52.997-52.997 51.318 191.482-191.482-51.318 39.273-39.272L507.348 505.65 292.304 643.906c-12.733 8.007-29.282 6.939-40.643-3.051L116.152 522.35c-13.957-12.35-15.48-33.705-3.127-47.814 12.277-14.105 33.705-15.477 47.814-3.2z"  horiz-adv-x="1024" />

    
    <glyph glyph-name="Advertisingcampaign" unicode="&#59191;" d="M322.27 376.017h123.513l30.312-81.176h42.213l-112.906 296.453h-40.914l-113.026-296.45h42.334l28.475 81.172zM378.814 532.738c1.72 4.855 3.376 11.724 4.736 20.723h0.953c1.712-9.83 3.256-16.694 4.616-20.723l44.758-123.267h-99.469l44.406 123.267zM757.859 336.405c29.724 27.71 44.646 64.478 44.646 110.422 0 43.992-14.922 79.102-44.646 105.272-29.836 26.111-67.201 39.195-112.079 39.195h-84.666v-296.51h81.53c47.015 0.060 85.379 13.914 115.215 41.62zM599.423 328.708v228.541h44.757c35.413 0 63.944-9.295 85.555-27.945 21.731-18.65 32.629-46.478 32.629-83.483s-10.657-65.72-31.676-86.325c-21.14-20.543-50.567-30.844-88.22-30.844h-43.046v0.056zM109.007 603.018c0 20.248 6.925 37.418 20.607 51.806 13.734 14.152 30.372 21.197 50.030 21.197h666.203c0.023 0 0.051 0 0.078 0 10.052 0 19.61-2.113 28.255-5.92 8.376-3.613 16.073-8.764 22.585-15.277 6.338-6.691 11.426-14.388 15.034-23.387 3.793-8.82 5.57-18.354 5.57-28.42v-397.873h-21.020c-5.57 0-10.305-0.18-14.21-0.356-4.024-0.356-8.465-0.472-13.441-0.472h-711.14c-4.973 0-9.117 0.116-12.73 0.472-3.788 0.175-8.053 0.356-12.91 0.356h-22.91v397.874zM951.764 93.418c-5.736-6.337-14.802-9.474-27.051-9.474h-826.775c-12.257 0-21.259 2.96-27.060 8.946-5.8 6.097-8.705 12.434-8.705 19.473 0 8.762 3.256 15.812 9.594 20.9 6.337 5.097 15.273 7.52 26.171 7.52h826.832c10.416 0 18.946-1.951 25.58-5.744 6.808-3.728 10.185-10.121 10.185-18.947-0.065-8.761-2.96-16.282-8.77-22.675z"  horiz-adv-x="1024" />

    
    <glyph glyph-name="Console" unicode="&#59192;" d="M973.712 302.977c0-84.99-25.496-169.979-67.99-237.97-8.5-8.496-17-16.998-25.497-16.998h-705.41c-8.5 0-16.999 8.496-25.495 16.999C98.325 141.5 81.33 217.987 81.33 302.977c0 59.494 8.499 118.987 33.995 178.476 25.495 59.494 59.494 101.987 93.488 144.482 42.495 42.495 84.99 67.99 144.482 93.486 59.493 25.496 110.486 33.998 178.478 33.998 59.494 0 118.985-8.497 178.478-33.998 59.494-25.495 101.988-59.494 144.483-93.486 42.495-42.495 67.99-84.99 93.488-144.482 16.99-59.494 25.49-118.982 25.49-178.476z m-722.41-42.495c8.5 8.496 17 25.495 17 42.495s-8.5 33.997-17 42.494-25.495 17-42.494 17-33.996-8.497-42.495-17c-8.5-8.496-17-25.495-17-42.494s8.5-33.998 17-42.495 25.496-17 42.495-17 33.995 0 42.495 17z m93.49 220.97c8.5 8.497 16.999 25.496 16.999 42.495s-8.5 33.998-17 42.495c-8.499 8.497-25.495 17-42.494 17s-33.995-8.497-42.495-17c-8.5-8.496-17-25.495-17-42.495s8.5-33.997 17-42.494 25.496-17 42.495-17 33.995 8.502 42.495 17zM582.76 285.978l50.994 195.474v25.496c-8.5 8.497-8.5 8.497-17 17H591.26c-8.5-8.497-8.5-8.497-16.999-17l-50.994-195.474c-17 0-33.996-8.496-50.995-25.496s-25.495-25.495-33.995-50.99c-8.5-25.497 0-50.992 8.5-76.493 16.999-25.496 33.995-33.997 59.494-42.495 25.495-8.496 50.994 0 76.49 8.497 25.495 16.999 33.995 33.997 42.494 59.494 8.5 16.999 8.5 42.495 0 59.493-16.997 16.999-25.496 33.998-42.494 42.494z m-8.498 288.967c8.5 8.496 17 25.495 17 42.495s-8.5 33.997-17 42.494-25.496 17-42.495 17-33.995-8.497-42.495-17c-8.5-8.496-16.999-25.495-16.999-42.494s8.5-33.998 17-42.495c8.499-8.497 25.495-17 42.494-17 8.498 0 25.497 8.497 42.495 17z m220.97-93.491c8.5 8.496 17 25.495 17 42.494s-8.5 33.998-17 42.495-25.495 17-42.494 17-33.995-8.497-42.495-17c-8.5-8.496-17-25.495-17-42.495s8.5-33.997 17-42.494 25.496-17 42.495-17 33.997 8.502 42.495 17z m93.489-220.971c8.5 8.496 17 25.495 17 42.495s-8.5 33.997-17 42.494-25.496 17-42.495 17-33.995-8.497-42.495-17c-8.5-8.496-16.999-25.495-16.999-42.494s8.5-33.998 17-42.495c8.499-8.497 25.495-17 42.494-17 17 0 33.995 0 42.495 17z"  horiz-adv-x="1024" />

    
    <glyph glyph-name="datamanagement" unicode="&#59193;" d="M335.793 830.016c58.352 8.337 125.04 16.673 191.727 16.673s133.376-8.337 191.728-16.673C777.6 821.68 819.28 805.01 852.624 780c33.344-16.673 50.016-41.68 50.016-66.687v-66.687c0-25.006-16.672-41.68-50.016-66.686s-83.36-33.344-133.376-50.017c-50.016-16.672-125.04-16.672-191.728-16.672s-133.375 8.337-191.727 16.672-100.031 25.007-133.376 50.017-50.016 41.68-50.016 66.686v66.687c0 25.007 16.672 41.68 50.016 66.687 33.344 25.009 75.024 41.68 133.376 50.016z m-25.008-333.439c66.688-16.673 141.712-25.007 216.735-25.007s150.048 8.337 216.736 25.007c66.688 16.673 116.704 33.343 158.383 58.353v-83.36c0-25.006-16.672-41.68-50.016-66.686s-83.36-33.344-133.376-50.017-125.04-16.672-191.728-16.672-133.375 8.337-191.727 16.672-100.031 25.007-133.376 50.017-50.016 41.68-50.016 66.686v83.36c33.345-25.01 91.696-50.016 158.385-58.353z m0-191.727c66.688-16.672 141.712-25.006 216.735-25.006s150.048 8.337 216.736 25.006c66.688 16.673 116.704 33.344 158.383 58.353v-83.36c0-25.006-16.672-41.68-50.016-66.686-33.345-16.673-83.36-33.343-133.376-50.016-58.352-8.337-125.04-16.673-191.728-16.673s-133.375 8.337-191.727 16.673c-58.352 8.337-100.031 25.006-133.376 50.016-33.344 16.673-50.016 41.68-50.016 66.687v83.36c33.345-25.01 91.696-41.683 158.385-58.354z m0-191.728c66.688-16.673 141.712-25.007 216.735-25.007s150.048 8.337 216.736 25.007c66.688 16.672 116.704 33.343 158.383 58.353v-83.36c0-25.006-16.672-41.68-50.016-66.687-33.345-16.672-83.36-33.343-133.376-50.016-58.352-8.337-125.04-16.673-191.728-16.673s-133.375 8.337-191.727 16.673c-58.352 8.337-100.031 25.007-133.376 50.016-33.344 16.673-50.016 41.68-50.016 66.687v83.36c33.345-16.673 91.696-41.68 158.385-58.353z"  horiz-adv-x="1024" />

    
    <glyph glyph-name="Permissionsetting" unicode="&#59194;" d="M514.843 567.915c-32.662 0-59.236-26.575-59.236-59.236s26.574-59.234 59.236-59.234c32.663 0 59.235 26.573 59.235 59.234 0 32.663-26.574 59.236-59.235 59.236z m248.028 186.88c-91.844 0-178.454 29.84-248.028 81.415-69.572-51.574-156.183-81.415-248.027-81.415-31.916 0-64.948 5.919-98.94 17.69v-389.619c0-36.154 12.89-80.546 37.272-128.37 25.365-49.75 63.226-103.28 109.493-154.802 41.088-45.757 89.067-90.05 135.096-124.714 20.241-15.243 37.122-26.415 50.33-34.363a20.177 20.177 0 0 1 21.151 0.212c13.383 8.411 30.438 20.03 50.9 35.587 47.488 36.105 96.667 81.042 138.477 126.53 47.916 52.134 87.033 105.736 113.122 155.012 24.923 47.073 38.097 90.265 38.097 124.908v389.62c-33.994-11.771-67.027-17.691-98.943-17.691zM552.24 350.969v-170.051c0-20.656-16.743-37.397-37.397-37.397-20.652 0-37.396 16.741-37.396 37.397v170.05c-71.4 16.928-124.677 81.211-124.677 157.712 0 89.368 72.706 162.076 162.074 162.076S676.92 598.048 676.92 508.68c-0.001-76.502-53.28-140.785-124.68-157.711z"  horiz-adv-x="1024" />

    
    <glyph glyph-name="Operationlog" unicode="&#59195;" d="M870.539-62.501h-670.163c-35.245 0-63.824 28.608-63.824 63.823v127.652h63.824c17.61 0 31.914 14.336 31.914 31.914v31.911c0 17.64-14.305 31.914-31.914 31.914h-63.824v63.827h63.824c17.61 0 31.914 14.335 31.914 31.912v31.913c0 17.64-14.305 31.913-31.914 31.913h-63.824v63.825h63.794c17.64 0 31.943 14.275 31.943 31.913v31.912c0 17.64-14.305 31.911-31.943 31.911h-63.794v63.827h63.794c17.64 0 31.943 14.336 31.943 31.912v31.912c0 17.638-14.305 31.911-31.943 31.911h-63.794v63.825c0 35.279 28.578 63.825 63.824 63.825h542.513c35.246 0 63.825-28.546 63.825-63.825h63.824c35.246 0 63.826-28.546 63.826-63.825v-702.075c0-35.219-28.579-63.827-63.825-63.827zM723.098 632.093l-56.687 31.787c-13.555 7.605-36.868 1.559-44.688-11.592l-245.422-413.241 113.346-63.575 245.418 413.178c7.824 13.153 1.558 35.838-11.967 43.443zM359.938 211.558v-114.498l113.346 50.86-113.345 63.638zM870.538 671.486c0 64.26-28.576 57.684-63.824 57.684v-632.107c0-35.215-28.579-63.827-63.826-63.827h-574.422c0-35.213 28.579-63.823 63.824-63.823h574.424c61.8 0 63.824 28.61 63.824 63.823v638.25zM200.376 639.573h-95.736v31.913h95.736v-31.913zM200.376 480.011h-95.736v31.911h95.736v-31.911zM200.376 320.448h-95.736v31.911h95.736v-31.911zM200.376 160.887h-95.736v31.911h95.736v-31.911z"  horiz-adv-x="1024" />

    
    <glyph glyph-name="PersonalCenter" unicode="&#59196;" d="M776.617 569.799c0 145.868-118.705 264.481-264.572 264.481-145.869 0-264.482-118.613-264.482-264.481 0-107.75 64.83-200.648 157.459-241.845-151.12-54.328-259.503-199.018-259.503-368.61 0-12.766 14.462-23.179 32.696-23.179 15.72 0 29.469 10.414 29.469 23.18 0 190.325 194.379 345.157 329.352 345.157 4.435 0 8.6 1.267 12.132 3.44 128.393 18.02 227.45 128.575 227.45 261.857zM532.991 220.427c0-12.768 10.413-25.695 23.18-25.695H845.01c12.768 0 23.179 12.928 23.179 25.695s-10.412 28.208-23.18 28.208H556.17c-12.857 0.001-23.18-15.44-23.18-28.208z m312.019-99.279H556.17c-12.767 0-23.18-14.184-23.18-26.951s10.414-25.694 23.18-25.694h288.84c12.768 0 23.179 12.927 23.179 25.694s-10.324 26.951-23.18 26.951z m0-129.116H556.17c-12.767 0-23.18-14.184-23.18-26.952s10.414-25.694 23.18-25.694h288.84c12.768 0 23.179 12.927 23.179 25.694s-10.324 26.952-23.18 26.952z"  horiz-adv-x="1024" />

    
    <glyph glyph-name="sl" unicode="&#59197;" d="M800.19968 66.93888h-576.39936c-17.69984 0-32 15.49824-32 34.49856v28.13952c0 19.0976 14.30016 34.49856 32 34.49856h576.39936c17.69984 0 32-15.49824 32-34.49856v-28.13952c0-19.0976-14.40256-34.49856-32-34.49856z m0 268.4928h-576.39936c-17.69984 0-32 15.49824-32 34.49856v28.13952c0 19.0976 14.30016 34.49856 32 34.49856h576.39936c17.69984 0 32-15.49824 32-34.49856v-28.13952c0-19.0976-14.40256-34.49856-32-34.49856z m0 268.4928h-576.39936c-17.69984 0-32 15.49824-32 34.49856v28.13952c0 19.0976 14.30016 34.49856 32 34.49856h576.39936c17.69984 0 32-15.49824 32-34.49856v-28.13952c0-19.0976-14.40256-34.49856-32-34.49856z"  horiz-adv-x="1024" />

    
    <glyph glyph-name="tl" unicode="&#59198;" d="M204.377 109.454v576.399c0 17.7 15.498 32 34.499 32h28.14c19.098 0 34.499-14.3 34.499-32v-576.399c0-17.7-15.498-32-34.499-32h-28.14c-19.098 0-34.499 14.403-34.499 32zM472.87 109.454v576.399c0 17.7 15.498 32 34.499 32h28.14c19.098 0 34.499-14.3 34.499-32v-576.399c0-17.7-15.498-32-34.499-32h-28.14c-19.098 0-34.499 14.403-34.499 32zM741.362 109.454v576.399c0 17.7 15.498 32 34.499 32h28.14c19.098 0 34.499-14.3 34.499-32v-576.399c0-17.7-15.498-32-34.499-32h-28.14c-19.098 0-34.499 14.403-34.499 32z"  horiz-adv-x="1024" />

    
    <glyph glyph-name="show_hide" unicode="&#59199;" d="M471.483 634.756c-137.939 0-249.784-111.845-249.784-249.784s111.845-249.782 249.785-249.782c138.040 0 249.783-111.845 249.783-249.784v999.133c0.103-137.938-111.742-249.783-249.783-249.783zM602.361 377.297c0-6.037-3.070-12.177-6.037-15.144-3.070-3.070-9.108-6.037-15.145-6.037h-124.636l51.676-51.676c3.070-3.070 6.037-9.108 6.037-15.145s-3.070-12.177-6.037-15.145l-12.177-12.177c-3.070-9.107-9.108-12.177-15.145-12.177s-12.177 3.070-15.144 6.038l-115.53 115.426c-3.070 6.037-6.037 9.107-6.037 15.145 0 6.037 3.070 12.177 6.038 15.144l115.426 115.427c3.070 3.070 9.107 6.037 15.145 6.037s12.177-3.070 15.144-6.037l12.177-12.177c3.070-6.038 6.038-9.108 6.038-15.145s-3.070-12.177-6.038-15.145l-51.675-51.675h124.533c6.038 0 12.177-3.070 15.145-6.038 3.070-3.070 6.037-9.107 6.037-15.144v-24.355z"  horiz-adv-x="1024" />

    
    <glyph glyph-name="Clock" unicode="&#59225;" d="M511.914 832.01c-247.012 0-447.925-200.912-447.925-447.924s200.913-447.925 447.925-447.925 447.925 200.913 447.925 447.925S758.926 832.011 511.914 832.011z m159.285-511.913H480.263c-17.717 0-32.166 14.449-32.166 32.166V606.844c0 17.718 14.277 31.995 31.994 31.995s31.995-14.277 31.995-31.995v-222.93h159.285c17.718 0 31.995-14.277 31.995-31.995s-14.45-31.822-32.167-31.822z"  horiz-adv-x="1024" />

    
    <glyph glyph-name="Collection" unicode="&#59226;" d="M742.529 260.061l51.34-314.457c1.045-6.397-5.744-11.183-11.418-8.050l-264.733 146.174c-1.083 0.609-2.376 0.968-3.754 0.968s-2.671-0.359-3.793-0.988l-264.695-146.153c-5.674-3.133-12.463 1.653-11.418 8.050l50.708 310.586c0.065 0.376 0.102 0.809 0.102 1.251 0 2.112-0.843 4.027-2.212 5.427l-214.401 219.523c-4.419 4.524-1.867 12.15 4.385 13.103l295.738 45.123c2.718 0.426 4.939 2.211 5.972 4.625l132.586 282.181c2.797 5.952 11.261 5.952 14.057 0l132.7-282.431c1.15-2.407 3.438-4.108 6.148-4.414l295.448-45.083c6.251-0.954 8.802-8.579 4.385-13.103l-217.144-222.332z"  horiz-adv-x="1024" />

    
    <glyph glyph-name="error" unicode="&#59227;" d="M512 832C264.991 832 64 631.04 64 384s200.96-448 448-448c247.009 0 448 200.96 448 448S759.04 832 512 832z m182.752-585.984c12.48-12.544 12.448-32.768-0.063-45.248a31.937 31.937 0 0 0-22.592-9.344c-8.224 0-16.416 3.136-22.657 9.408l-137.6 138.016-138.048-136.577c-6.239-6.144-14.368-9.247-22.496-9.247a31.886 31.886 0 0 0-22.752 9.504c-12.416 12.576-12.32 32.8 0.257 45.248L466.688 384.16 329.311 521.984c-12.48 12.513-12.447 32.768 0.064 45.248 12.513 12.513 32.735 12.448 45.248-0.063l137.568-137.985L650.239 565.76c12.543 12.447 32.831 12.32 45.248-0.257 12.447-12.576 12.32-32.831-0.257-45.248L557.344 383.873l137.408-137.857z"  horiz-adv-x="1024" />

    
    <glyph glyph-name="export" unicode="&#59228;" d="M308.896 384.261v-20.306c208.364-184.412 347.663-64.604 447.749 118.364l89.139-54.313c6.282-3.845 13.921-3.753 19.584 0.686 5.606 4.408 8.018 12.099 6.047 19.323l-42.998 279.117c-2.698 9.856-12.646 15.933-22.108 13.414l-249.723-100.593c-5.097-1.322-9.182-4.836-11.254-9.449-0.784-1.282-1.602-4.077-1.707-7.053-0.74-6.118 3.059-13.153 9.326-16.962l87.496-53.335c-98.207-179.62-191.923-242.161-331.54-168.919l-0.010 0.026zM776.194 26.88c63.8 0 115.538 52.531 115.538 117.33v211.41h-57.764v-215.081c0-32.43-25.892-58.67-57.764-58.67h-519.88c-31.928 0-57.764 26.25-57.764 58.67v476.672c0 32.399 25.836 58.67 57.764 58.67h115.523v54.999h-115.523c-63.8 0-115.523-52.531-115.523-117.33v-469.33c0-64.788 51.722-117.335 115.523-117.335l519.869-0.005z"  horiz-adv-x="1024" />

    
    <glyph glyph-name="download1" unicode="&#59229;" d="M430.58176 355.61984h-41.37984a161.4848 161.4848 0 0 1 41.37984 0zM840.92416 355.61984c-6.1952 0-11.22304-5.02272-11.22304-11.22304v-203.85792c0-32.43008-25.89184-58.67008-57.76384-58.67008H252.0576c-31.92832 0-57.76384 26.25024-57.76384 58.67008v203.85792c0 6.1952-5.02272 11.22304-11.22304 11.22304h-35.31776c-6.1952 0-11.22304-5.02272-11.22304-11.22304v-200.17664c0-64.78848 51.72224-117.33504 115.52256-117.33504l519.86944-0.00512c63.80032 0 115.53792 52.5312 115.53792 117.32992v200.18688c0 6.1952-5.02272 11.22304-11.22304 11.22304h-35.31264zM697.68192 429.3888c-3.1232 6.784-10.01472 10.84416-17.34656 10.85952l-102.13888 0.39936v306.38592c0 4.93056-3.99872 8.92928-8.92928 8.92928h-117.87776c-5.05856 0-8.90368-4.22912-8.90368-9.2928 0-29.17376-0.70656-55.41376-0.70656-79.27296v-226.20672l-104.38144 0.38912c-7.36768 0.04096-13.85472-3.98848-16.4096-10.71616-2.51904-6.67136-0.60416-14.49984 4.81792-19.66592l181.14048-216.66304c7.40864-7.04 19.06176-7.09632 25.86112-0.04608l161.72032 215.23968c3.42528 3.4816 5.07392 8.09472 4.84352 12.71296a18.2016 18.2016 0 0 1-1.6896 6.94784z"  horiz-adv-x="1024" />

    
    <glyph glyph-name="Correct" unicode="&#59230;" d="M511.999-63.734c-246.877 0-447.717 200.84-447.717 447.709 0 246.872 200.84 447.718 447.717 447.718 246.879 0 447.717-200.845 447.717-447.718 0-246.87-200.838-447.709-447.717-447.709zM511.999 786.476c-221.943 0-402.507-180.564-402.507-402.506s180.565-402.494 402.507-402.494c221.942 0 402.507 180.551 402.507 402.494s-180.567 402.506-402.507 402.506zM426.954 187.78l-183.791 172.099 39.995 39.995 143.569-141.9 314.118 322.204 39.993-39.995s-346.38-352.399-353.884-352.403z"  horiz-adv-x="1024" />

    
    <glyph glyph-name="LOCK" unicode="&#59231;" d="M748.8 32H275.2c-32 0-57.6 25.6-57.6 57.6V384c0 32 32 57.6 57.6 57.6h467.2c38.4 0 57.6-25.6 57.6-57.6v-294.4c6.4-32-19.2-57.6-51.2-57.6z m-384 441.6v83.2c0 70.4 51.2 121.6 121.6 121.6h51.2c64 0 121.6-51.2 121.6-121.6v-83.2h57.6v83.2c0 102.4-83.2 179.2-179.2 179.2h-51.2c-102.4 0-179.2-83.2-179.2-179.2v-83.2h57.6z"  horiz-adv-x="1024" />

    
    <glyph glyph-name="Import" unicode="&#59232;" d="M162.319603 632.51005c149.03389 78.173112 249.062027 11.422106 353.888541-180.305321l-93.393478-56.930181c-6.68931-4.066051-10.744431-11.575129-9.853616-19.499557 0.295117-2.563142 1.054769-5.082564 2.289887-7.279543 2.344538-4.344772 6.394193-7.651171 11.443966-8.940941l266.555884-107.373261c10.099546-2.68884 20.718279 3.79826 23.598399 14.318621l45.896099 297.931152c2.104072 7.711288-0.464535 15.919902-6.45431 20.625372-6.044425 4.738261-14.198388 4.836633-20.904093 0.732327L640.244564 527.814698c-106.832214 195.307082-255.516337 323.185483-477.930426 126.342702v-21.674676l0.005465 0.027326z m662.739008-631.418392c68.100891 0 123.309559 56.083087 123.309559 125.244212v500.965918c0 69.16659-55.208667 125.238747-123.309559 125.238747h-123.309558v-58.706346h123.309558c34.080504 0 61.657512-28.041543 61.657512-62.624839v-508.802903c0-34.605156-27.577008-62.624839-61.657512-62.624838h-554.912141c-34.020387 0-61.657512 28.008753-61.657512 62.624838v317.02629h-61.657512v-313.107797c0-69.16659 55.225063-125.238747 123.325954-125.238747l554.901211 0.005465z"  horiz-adv-x="1093" />

    
    <glyph glyph-name="minimize" unicode="&#59233;" d="M727.063 422.080c0 0 0 0 0 0-26.938 0-48.775 21.837-48.775 48.775v376.37c0 0 0 0 0 0 0 26.938 21.837 48.775 48.775 48.775 26.938 0 48.775-21.837 48.775-48.775 0 0 0 0 0 0v-376.364l-48.775 48.775h382.693c26.938 0 48.775-21.837 48.775-48.775s-21.837-48.775-48.775-48.775l-382.693-0.006zM562.748 345.86c0 0 0 0 0 0 26.938 0 48.775-21.837 48.775-48.775v-376.364c0-26.938-21.837-48.775-48.775-48.775s-48.775 21.837-48.775 48.775v376.364l48.775-48.775h-382.693c0 0 0 0 0 0-26.938 0-48.775 21.837-48.775 48.775 0 26.938 21.837 48.775 48.775 48.775 0 0 0 0 0 0h382.693z"  horiz-adv-x="1264" />

    
    <glyph glyph-name="Maximization" unicode="&#59234;" d="M1140.94746 896c30.529076 0 55.276327-24.748251 55.276326-55.276327v-426.511088c0-30.528076-24.748251-55.276327-55.276326-55.276326s-55.275327 24.748251-55.275327 55.276326V840.723673l55.275327-55.275326H707.269589c-30.529076 0-55.276327 24.747251-55.276327 55.275326C651.993262 871.252749 676.741513 896 707.269589 896h433.677871zM223.889222-127.997c-30.528076 0-55.275327 24.747251-55.275327 55.275327V353.790415c0 30.528076 24.747251 55.275327 55.275327 55.275326 30.529076 0 55.276327-24.747251 55.276327-55.275326v-426.512088l-55.276327 55.276326h433.678871c30.528076 0 55.275327-24.748251 55.275327-55.276326s-24.747251-55.275327-55.275327-55.275327H223.889222z"  horiz-adv-x="1364" />

    
    <glyph glyph-name="Prompt" unicode="&#59235;" d="M512 830.017C266.048 830.017 65.983 629.952 65.983 384S266.048-62.017 512-62.017 958.017 138.048 958.017 384 757.952 830.017 512 830.017z m32-670.018c0-17.696-14.303-32-32-32s-32 14.303-32 32V448c0 17.696 14.303 32 32 32 17.696 0 32-14.303 32-32v-288z m-32 384c-26.496 0-48 21.537-48 48C464 618.528 485.504 640 512 640s48-21.472 48-48c0-26.464-21.504-48-48-48z"  horiz-adv-x="1024" />

    
    <glyph glyph-name="Open" unicode="&#59236;" d="M930.482 584.817c-9.383 11.285-22.972 17.067-36.56 17.067-10.84 0-21.76-3.639-30.657-11.161L527.537 309.044 191.808 590.723c-8.896 7.523-19.817 11.161-30.655 11.161-13.59 0-27.18-5.782-36.562-17.067-16.987-20.141-14.398-50.272 5.824-67.218l365.778-306.892c9.112-7.649 20.275-11.301 31.345-11.148 11.067-0.153 22.232 3.5 31.343 11.148l365.697 306.892c20.222 16.946 22.89 47.077 5.904 67.218z"  horiz-adv-x="1024" />

    
    <glyph glyph-name="remind_fill" unicode="&#59237;" d="M844.8 153.6l-57.6 115.2V448c0 115.2-76.8 224-185.6 262.4-6.4 38.4-44.8 70.4-89.6 70.4s-83.2-32-89.6-76.8c-108.8-38.4-185.6-140.8-185.6-256v-179.2l-57.6-115.2c-6.4-6.4-6.4-19.2 0-32 6.4-6.4 12.8-12.8 25.6-12.8h614.4c12.8 0 19.2 6.4 25.6 12.8 6.4 6.4 6.4 19.2 0 32z m-422.4-76.8c0-51.2 38.4-89.6 89.6-89.6 51.2 0 89.6 38.4 89.6 89.6H422.4z"  horiz-adv-x="1024" />

    
    <glyph glyph-name="Questionmark" unicode="&#59238;" d="M511.716-63.474c247.27 0 447.718 200.449 447.718 447.716 0 247.268-200.449 447.717-447.718 447.717-247.266 0-447.716-200.449-447.716-447.717s200.449-447.716 447.716-447.716zM539.262 176.1v-73.453h-64.274v73.453h64.274zM401.537 476.034h-67.333c0 128.544 62.23 191.795 186.695 189.755 108.139-4.081 164.249-57.13 168.33-159.149 0-36.726-25.505-77.535-76.514-122.422-48.968-44.888-73.452-83.656-73.452-116.301v-27.545h-64.274v39.787c0 38.767 25.504 82.635 76.514 131.603 38.769 38.767 60.193 70.393 64.275 94.878-2.041 55.090-31.625 85.696-88.759 91.816-85.697 4.082-127.523-36.725-125.483-122.422z"  horiz-adv-x="1024" />

    
    <glyph glyph-name="Return" unicode="&#59239;" d="M914.638 37.444s-8.326-21.432-19.406 0c0 0-123.863 373.837-425.813 279.675v-116.044s-4.837-68.231-64.35-23.794L108.182 433.556s-62.944 34.256 3.825 81.113l300.038 257.794s45.112 32.175 55.969-20.587l0.337-125.213c0.056-0.056 562.781-27 446.288-589.219z"  horiz-adv-x="1024" />

    
    <glyph glyph-name="Toolkit" unicode="&#59241;" d="M558.32576 339.46112c0.4096 0.96768 0.73728 1.9712 1.08544 2.96448 0.16896 0.49152 0.384 0.96768 0.5376 1.46944a49.06496 49.06496 0 0 1 2.23744 14.6688c0 8.9856-2.57024 17.26976-6.80448 24.52992h-84.5056a50.71872 50.71872 0 0 1-4.98176-11.64288 46.92992 46.92992 0 0 1-1.83808-12.9792c0-27.07456 21.93408-49.05984 49.03936-49.05984 20.33664-0.00512 37.79584 12.40064 45.23008 30.04928zM607.80544 383.0016h-0.0768c2.05312-7.8592 3.5072-15.96928 3.5072-24.4992-0.03584-54.15936-43.95008-98.05824-98.11968-98.05824-54.19008 0-98.11968 43.9296-98.12992 98.10944 0 0.68096 0.06144 1.33632 0.08192 2.01216 0.03584 1.4336 0.06144 2.87744 0.17408 4.28544 0.0512 0.6144 0.14848 1.20832 0.20992 1.8176 0.57344 5.62688 1.64864 11.09504 3.0464 16.43008h-297.88672v-314.97216c0-29.32224 23.76704-53.08928 53.08928-53.08928h678.83008c29.31712 0 53.08416 23.76704 53.08416 53.08416v10.112V383.09888h-297.83552l0.0256-0.09728zM852.85888 652.94336h-192.55296V747.3664a3.70176 3.70176 0 0 1-3.70176 3.70176h-286.976a3.69664 3.69664 0 0 1-3.69664-3.69664v-94.42816h-147.18464c-0.62464 0-1.23392-0.08192-1.85856-0.09216h-43.50976c-29.13792 0-52.7616-23.62368-52.7616-52.7616v-167.808h784.9984v167.90016c0.00512 29.13792-23.61856 52.7616-52.75648 52.7616z m-437.8624 48.96256h196.24448v-48.96256h-196.24448v48.96256z"  horiz-adv-x="1024" />

    
    <glyph glyph-name="Unlock" unicode="&#59242;" d="M656.63488 32h-473.6c-32 0-57.6 25.6-57.6 57.6V384c0 32 32 57.6 57.6 57.6h467.2c38.4 0 57.6-25.6 57.6-57.6v-294.4c6.4-32-19.2-57.6-51.2-57.6z m-76.77952 441.6v83.2c0 70.4 51.2 121.6 121.6 121.6h51.2c64 0 121.6-51.2 121.6-121.6v-83.2h57.6v83.2c0 102.4-83.2 179.2-179.2 179.2h-51.2c-102.4 0-179.2-83.2-179.2-179.2v-83.2h57.6z"  horiz-adv-x="1024" />

    
    <glyph glyph-name="radio" unicode="&#59246;" d="M512.665 829.975c-245.165 0-445.754-200.59-445.754-445.754s200.59-445.754 445.754-445.754 445.753 200.59 445.753 445.754-200.588 445.754-445.753 445.754zM512.665-24.393c-224.737 0-408.614 183.876-408.614 408.614s183.876 408.614 408.614 408.614 408.614-183.877 408.614-408.614-183.877-408.614-408.614-408.614zM512.584 384.194zM227.457 384.194c0-157.471 127.655-285.126 285.126-285.126s285.127 127.655 285.127 285.126-127.655 285.126-285.126 285.126-285.127-127.655-285.127-285.126z"  horiz-adv-x="1024" />

    
    <glyph glyph-name="unradio" unicode="&#59248;" d="M512.665 829.975c-245.165 0-445.754-200.59-445.754-445.754s200.59-445.754 445.754-445.754 445.753 200.59 445.753 445.754-200.588 445.754-445.753 445.754zM512.665-24.393c-224.737 0-408.614 183.876-408.614 408.614s183.876 408.614 408.614 408.614 408.614-183.877 408.614-408.614-183.877-408.614-408.614-408.614z"  horiz-adv-x="1024" />

    
    <glyph glyph-name="preservation" unicode="&#59219;" d="M848.545 832.551h-782.528v-782.469c0-61.756 50.037-111.617 111.831-111.617h625.79c12.344 0 22.352 10.008 22.352 22.352s-10.008 22.352-22.352 22.352h-625.789c-37.14 0-67.127 29.882-67.127 66.913v737.765h89.408v-290.695c0-61.619 50.097-111.644 111.824-111.644h379.86c61.658 0 111.824 50.015 111.824 111.644v290.695h44.908c36.974 0 66.853-29.873 66.853-66.942v-760.088c0-12.344 10.008-22.352 22.352-22.352s22.352 10.008 22.352 22.352v760.089c0 61.759-49.895 111.645-111.558 111.645zM691.815 430.213h-379.861c-37.051 0-67.12 30.025-67.12 66.94v290.695h514.099v-290.695c0.001-36.91-30.119-66.94-67.118-66.94zM624.821 743.143c-12.344 0-22.352-10.008-22.352-22.352v-178.818c0-12.344 10.008-22.352 22.352-22.352s22.352 10.008 22.352 22.352v178.818c0 12.344-10.008 22.352-22.352 22.352z"  horiz-adv-x="1024" />

    
    <glyph glyph-name="see" unicode="&#59220;" d="M952.293 407.444l-1.344 2.24c-128.522 191.642-272.858 288.806-429.066 288.806-262.757 0-450.882-288.246-452.293-291.047-8.848-17.18-8.848-35.39 0-52.637l2.016-3.225c142.611-190.051 286.32-282.446 439.325-282.446 67.376 0 128.836 18.524 183.31 46.478 28.446 14.581 60.274 33.396 79.357 50.195 3.987 3.54 6.115 9.675 6.115 15.724 0 12.386-10.035 22.398-22.399 22.398-4.927 0-9.228-1.926-12.924-4.592 0 0-53.129-35.927-82.785-49.927-45.625-21.592-96.135-35.457-150.675-35.457-137.482 0-269.028 85.966-402.144 262.735-1.5 3.606-1.321 6.473 0.448 9.9 1.523 2.666 176.635 267.102 412.648 267.102 140.014 0 271.537-90.065 391.034-267.707 0.515-1.165 0.806-2.15 0.985-2.867l-1.971-2.956c-14.76-22.399-77.32-98.71-84.107-106.147-6.787-7.436-9.609-10.393-9.609-17.897 0-12.386 10.035-22.398 22.399-22.398 6.406 0 11.446 2.329 16.194 7.078 4.748 4.726 76.491 90.378 92.528 114.702l0.694 1.052c10.909 12.611 11.871 32.188 2.263 50.891zM406.419 386.523c0-54.81 48.851-102.877 104.512-102.877 56.624 0 104.489 47.126 104.489 102.876 0 55.75-47.866 102.832-104.489 102.832-55.661 0-104.512-48.044-104.512-102.831zM570.624 386.523c0-30.395-28.469-58.080-59.693-58.080-31.268 0-59.714 27.685-59.714 58.080 0 30.373 28.469 58.036 59.714 58.036 31.247-0.001 59.693-27.664 59.693-58.036z"  horiz-adv-x="1024" />

    
    <glyph glyph-name="Label" unicode="&#59222;" d="M827.437 348.838l-364.31-339.636c-27.401-25.651-71.577-25.319-98.468 0.758l-239.41 232.156c-26.462 25.659-26.971 67.924-1.142 94.328l438.566 448.309-15.919-6.698h300.76c36.846 0 66.643-29.866 66.643-66.961v-289.308c0-12.297 9.969-22.266 22.267-22.266 12.297 0 22.267 9.969 22.267 22.266v289.309c0 61.666-49.71 111.495-111.176 111.495h-300.76c-0.001 0-0.001 0-0.002 0-6.234 0-11.87-2.562-15.911-6.692l-438.566-448.314c-43.068-44.025-42.215-114.59 1.973-157.441l239.41-232.154c43.965-42.633 115.178-43.171 159.871-1.33l364.278 339.605c8.995 8.386 9.489 22.476 1.103 31.471-8.388 8.994-22.478 9.488-31.474 1.102zM724.889 488.589c55.339 0 100.2 44.861 100.2 100.2s-44.861 100.201-100.2 100.201c-55.339 0-100.2-44.862-100.2-100.201 0-55.338 44.861-100.2 100.2-100.2zM724.889 533.123c-30.744 0-55.667 24.924-55.667 55.667 0 30.744 24.923 55.668 55.667 55.668s55.667-24.924 55.667-55.668-24.923-55.667-55.667-55.667z"  horiz-adv-x="1024" />

    
    <glyph glyph-name="binding" unicode="&#59223;" d="M356.907 539.376c-9.58-9.58-9.58-25.1 0-34.657l277.511-277.49c15.080-15.151 44.877-6.341 42.974 25.817-0.024 0.372-0.188 0.702-0.439 0.941l-285.365 285.388c-9.58 9.56-25.1 9.56-34.681 0.001zM154.011 773.532l-31.236-31.259c-68.964-68.964-68.986-180.775 0-249.74l109.274-109.275c54.041-54.084 134.308-65.431 199.717-34.701 0.244 0.111 0.464 0.199 0.729 0.288 0.464 0.221 1.016 0.42 1.479 0.64-0.043 0.111 0.044-0.111 0 0 4.115 2.065 7.466 5.126 9.821 8.875 6.294 5.43 6.294 21.169-3.397 30.882-7.792 7.771-19.183 9.14-28.5 4.46-0.043 0.132 0.067-0.133 0 0-48.786-22.186-108.523-13.091-148.634 27.043l-103.026 103.003c-51.722 51.745-51.722 135.587 0 187.31l24.968 24.99c51.722 51.722 135.587 51.699 187.31 0l103.026-103.027c40.774-40.751 49.405-101.591 25.983-150.775 0 0 0.023 0.021 0 0-0.067-0.177 0.088 0.177 0 0 0.044-0.023-0.023 0.021 0 0-5.664-15.103 2.428-35.824 29.355-34.329 3.648 1.302 12.415 7.2 15.945 14.263 0.133-0.023-0.156 0.021 0 0 32.076 65.807 20.884 147.376-33.775 202.057l-109.274 109.274c-68.986 68.963-180.82 68.963-249.762 0.023zM901.819 25.723l-31.259-31.236c-68.963-68.965-180.775-68.965-249.739 0.021l-109.275 109.252c-54.041 54.041-65.431 134.329-34.68 199.718 0.111 0.243 0.199 0.464 0.288 0.728 0.221 0.464 0.441 1.039 0.64 1.48 0.111-0.045-0.111 0.043 0 0 2.066 4.116 5.128 7.467 8.878 9.824 5.427 6.291 21.168 6.291 30.902-3.399 7.748-7.771 9.118-19.161 4.416-28.5 0.156-0.067-0.111 0.067 0 0-22.186-48.81-13.069-108.501 27.065-148.634l103.025-103.005c51.746-51.745 135.588-51.745 187.311 0l24.967 24.968c51.746 51.745 51.722 135.587 0 187.289l-103.004 103.026c-40.775 40.752-101.591 49.405-150.776 25.983-0.023 0 0.021 0 0 0-0.177-0.111 0.199 0.067 0 0-0.023 0 0.021-0.021 0 0-8.83-3.333-19.581-1.942-26.689 5.188-9.692 9.713-9.692 25.432-0.023 35.144 1.987 1.965 4.217 3.752 6.644 4.946-0.021 0.111 0.023-0.156 0 0 65.808 32.097 147.376 20.883 202.034-33.775l109.274-109.274c68.942-68.943 68.942-180.777 0-249.742z"  horiz-adv-x="1024" />

    
    <glyph glyph-name="play" unicode="&#59224;" d="M513.256 830.504c-246.592 0-448.35-201.757-448.35-448.35s201.757-448.35 448.35-448.35c103.121 0 199.516 33.626 280.219 96.395 8.967 6.725 11.208 20.176 4.483 31.385-6.725 8.967-20.176 11.208-31.385 4.483-71.736-58.285-161.406-87.428-253.317-87.428-224.175 0-403.515 179.34-403.515 403.515s179.341 403.515 403.515 403.515 403.515-179.34 403.515-403.514c0-76.22-22.418-150.197-60.528-212.966-6.725-11.208-2.242-24.66 6.725-29.143 11.208-6.725 24.66-2.242 29.143 6.725 44.835 69.494 67.253 152.439 67.253 237.625 2.242 244.351-199.515 446.108-446.108 446.108zM690.355 429.231c-15.692 13.45-215.208 195.032-215.208 195.032-8.967 8.967-22.418 6.725-31.385-2.242-4.483-4.483-6.725-11.208-6.725-15.692v-448.35c0-13.45 8.967-22.418 22.418-22.418 4.483 0 11.208 2.242 13.45 6.725 2.242 2.242 190.549 163.648 210.724 181.582 20.176 17.934 29.143 33.626 29.143 56.043 2.243 20.178-6.724 35.87-22.417 49.32zM661.212 361.978c-6.725-4.483-179.34-154.681-179.34-154.681v349.714s163.648-145.714 177.098-159.164c15.691-15.692 17.933-22.418 2.241-35.869z"  horiz-adv-x="1024" />

    
    <glyph glyph-name="close" unicode="&#59240;" d="M957.881 723.932l-105.168 105.168-341.368-341.367-341.367 341.367-105.169-105.168 341.368-341.368-341.368-341.367 105.169-105.168 341.367 341.367 341.368-341.367 105.168 105.168-341.367 341.367 341.367 341.368z"  horiz-adv-x="1024" />

    
    <glyph glyph-name="cry" unicode="&#59243;" d="M957.863 383.856c0 246.606-199.912 446.518-446.518 446.518s-446.518-199.913-446.518-446.518 199.912-446.518 446.518-446.518c102.394 0 199.56 34.596 278 97.077 9.41 7.496 10.962 21.199 3.467 30.608s-21.199 10.961-30.608 3.466c-70.794-56.391-158.413-87.588-250.857-87.588-222.546 0-402.955 180.41-402.955 402.955s180.41 402.954 402.954 402.954 402.955-180.41 402.955-402.955c0-76.303-21.221-149.424-60.679-212.759-6.361-10.211-3.241-23.645 6.97-30.004 10.21-6.361 23.642-3.241 30.004 6.969 43.733 70.199 67.267 151.289 67.267 235.794zM358.876 394.747c30.075 0 54.454 24.379 54.454 54.453s-24.379 54.453-54.454 54.453c-30.073 0-54.452-24.379-54.452-54.454 0-30.073 24.379-54.452 54.452-54.452zM685.597 394.747c30.074 0 54.453 24.379 54.453 54.453s-24.379 54.453-54.454 54.453c-30.073 0-54.452-24.379-54.452-54.454 0-30.073 24.379-54.452 54.453-54.452zM372.496 215.728c37.83 30.264 87.527 48.336 149.74 48.336s111.91-18.073 149.74-48.336c23.123-18.497 37.234-37.314 43.992-50.83 5.38-10.759 1.018-23.843-9.742-29.223-10.759-5.381-23.843-1.018-29.223 9.742-0.8 1.599-3.019 5.254-6.792 10.284-6.596 8.794-15.034 17.677-25.451 26.009-30.237 24.19-70.387 38.789-122.527 38.789s-92.29-14.6-122.528-38.789c-10.416-8.333-18.854-17.215-25.45-26.009-3.774-5.032-5.991-8.685-6.792-10.285-5.381-10.759-18.464-15.12-29.224-9.742-10.759 5.381-15.12 18.465-9.741 29.224 6.761 13.515 20.872 32.331 43.994 50.83z"  horiz-adv-x="1024" />

    
    <glyph glyph-name="list" unicode="&#59244;" d="M794.924 788.156c35.829 0 64.851-28.381 64.851-63.392v-619.404l6.042 14.683-140.501-142.997 15.574 6.491h-507.987c-35.75 0-64.818 28.511-64.818 63.523v762.271l-21.616-21.173 648.456-0.002zM124.855 830.504v-783.444c0-58.388 48.411-105.871 108.049-105.871h517.184l152.918 155.636v627.94c0 58.415-48.393 105.74-108.082 105.74h-670.069zM708.538 216.453c-35.885 0-64.915-28.287-64.915-63.482v-127.085c0-11.694 9.677-21.174 21.616-21.174 11.937 0 21.614 9.48 21.614 21.173v127.087c0 11.756 9.624 21.133 21.686 21.133h97.199c11.938 0 21.615 9.48 21.615 21.174 0 11.695-9.677 21.174-21.615 21.174l-97.2-0.001zM742.481 639.937c11.938 0 21.616 9.479 21.616 21.173s-9.678 21.174-21.616 21.174h-444.703c-11.938 0-21.615-9.479-21.615-21.173s9.677-21.175 21.616-21.175l444.702 0.001zM742.481 512.892c11.938 0 21.616 9.479 21.616 21.173s-9.678 21.175-21.616 21.175h-444.703c-11.938 0-21.615-9.48-21.615-21.174s9.677-21.174 21.616-21.174h444.702zM742.481 364.673c11.938 0 21.616 9.48 21.616 21.174s-9.678 21.174-21.616 21.174h-444.703c-11.938 0-21.615-9.48-21.615-21.174s9.677-21.174 21.616-21.174h444.702z"  horiz-adv-x="1024" />

    
    <glyph glyph-name="upload" unicode="&#59245;" d="M762.36 392.016l-32.654 0.735 170.159-211.070 16.638 34.642h-128.098v-257.572l21.349 21.297h-149.446l21.348-21.297v149.077c0 11.762-9.559 21.297-21.349 21.297s-21.349-9.535-21.349-21.297v-170.374h192.146v257.572l-21.349-21.297h151.313l-213.975 265.423-204.254-231.162c-7.797-8.823-6.946-22.281 1.899-30.059s22.337-6.929 30.133 1.895l187.488 212.19zM186.33 1.344c-41.7 0-75.817 35.198-75.817 78.928v730.348l-21.349-21.296h628.585c41.733 0 75.951-35.346 75.951-79.124v-381.407h42.699v381.407c0 66.974-52.995 121.717-118.65 121.717h-649.935v-751.645c0-66.939 52.907-121.522 118.516-121.522h477.063v42.593l-477.064 0.001zM706.302 491.168c11.791 0 21.348 9.536 21.348 21.298s-9.559 21.297-21.349 21.297h-488.185c-11.792 0-21.349-9.535-21.349-21.297s9.559-21.297 21.349-21.297l488.186-0.001zM708.689 618.949c11.791 0 21.348 9.535 21.348 21.297 0 11.763-9.559 21.297-21.349 21.297h-488.184c-11.792 0-21.349-9.534-21.349-21.297 0-11.762 9.559-21.297 21.349-21.297h488.185z"  horiz-adv-x="1024" />

    
    <glyph glyph-name="delete" unicode="&#59249;" d="M934.747 666.74c13.039-0.018 23.626 10.591 23.643 23.696 0.018 13.104-10.539 23.742-23.579 23.76l-845.56 1.167c-13.040 0.018-23.626-10.591-23.643-23.696-0.018-13.104 10.539-23.743 23.579-23.76l845.56-1.167zM222.352-37.397v-23.974l610.498 6.309v649.817c0 13.104-10.571 23.728-23.612 23.728s-23.612-10.624-23.612-23.728v-626.331l23.369 23.726-563.276-5.821 23.855-23.726v638.2c0 13.105-10.572 23.728-23.612 23.728-13.039 0-23.612-10.623-23.612-23.728v-638.2zM650.355 93.245c0-13.105 10.572-23.728 23.612-23.728 13.039 0 23.611 10.623 23.611 23.728v427.108c0 13.105-10.571 23.728-23.611 23.728s-23.612-10.623-23.612-23.728v-427.108zM367.014 93.245c0-13.105 10.572-23.728 23.612-23.728 13.039 0 23.612 10.623 23.612 23.728v427.108c0 13.105-10.571 23.728-23.612 23.728s-23.612-10.623-23.612-23.728v-427.108zM508.685 93.245c0-13.105 10.571-23.728 23.612-23.728 13.040 0 23.612 10.623 23.612 23.728v427.108c0 13.105-10.572 23.728-23.612 23.728-13.039 0-23.612-10.623-23.612-23.728v-427.108zM412.711 750.036c0 13.181 10.441 23.703 23.609 23.703h183.924c13.024 0 23.609-10.61 23.609-23.548v-49.545h47.224v49.545c0 39.175-31.754 71.005-70.832 71.005h-183.925c-39.278 0-70.832-31.797-70.832-71.16v-43.695h47.224l0.001 43.695z"  horiz-adv-x="1024" />

    
    <glyph glyph-name="password" unicode="&#59250;" d="M870.266 478.741c-14.222 14.251-33.199 22.099-53.399 22.099l-540.418 0.767c3.278 67.907 16.36 153.793 69.465 212.302 48.116 53.077 91.209 70.115 177.343 70.115 120.201 0 204.655-60.562 251.015-180.004 5.157-13.29 20.111-19.881 33.404-14.723 13.291 5.158 19.882 20.113 14.723 33.404-54.072 139.312-157.514 212.948-299.142 212.948-100.901 0-157.318-22.784-215.581-87.056-64.512-71.077-79.433-170.265-82.905-246.914l-15.235 0.021c-41.45 0-76.468-34.521-76.468-75.383v-412.509c0-41.147 33.728-74.621 75.185-74.621h608.524c41.457 0 75.185 33.475 75.185 74.621v412.453c0.040 19.784-7.666 38.42-21.697 52.478zM840.34 13.811c0-12.68-10.569-22.995-23.56-22.995h-608.525c-12.991 0-23.56 10.316-23.56 22.995v412.509c0 12.433 11.841 23.757 24.805 23.757l607.331-0.862c6.427 0 12.427-2.465 16.895-6.942 4.276-4.285 6.626-9.935 6.614-15.958v-412.503zM512.517 328.879c-14.256 0-25.813-11.557-25.813-25.813v-165.238c0-14.256 11.557-25.813 25.813-25.813s25.813 11.557 25.813 25.813v165.238c0 14.255-11.557 25.813-25.813 25.813z"  horiz-adv-x="1024" />

    
    <glyph glyph-name="calendar" unicode="&#59251;" d="M177.811 15.3c-36.965 0-67.042 30.503-67.042 67.889v609.864l-22.291-22.593h757.994c36.769 0 66.756-30.463 66.756-67.685v-508.406c0-12.477 9.98-22.592 22.291-22.592 12.31 0 22.291 10.115 22.291 22.592v508.406c0 62.153-49.925 112.869-111.338 112.869h-757.994c-12.31 0-22.291-10.115-22.291-22.592v-609.863c0-62.334 50.030-113.073 111.622-113.073h657.401c12.31 0 22.291 10.114 22.291 22.592s-9.98 22.592-22.291 22.592h-657.4zM311.384 602.686c0-12.477 9.98-22.592 22.291-22.592s22.291 10.115 22.291 22.592v169.439c0 12.477-9.98 22.592-22.291 22.592s-22.291-10.115-22.291-22.592v-169.439zM690.324 613.981c0-12.477 9.98-22.592 22.291-22.592s22.291 10.115 22.291 22.592v169.439c0 12.477-9.98 22.592-22.291 22.592s-22.291-10.115-22.291-22.592v-169.439zM355.966 467.134c12.31 0 22.291 10.115 22.291 22.592 0 12.477-9.98 22.592-22.291 22.592h-122.598c-12.31 0-22.291-10.114-22.291-22.592 0-12.477 9.98-22.592 22.291-22.592h122.598zM601.161 467.134c12.31 0 22.291 10.115 22.291 22.592 0 12.477-9.98 22.592-22.291 22.592h-122.597c-12.31 0-22.291-10.114-22.291-22.592 0-12.477 9.98-22.592 22.291-22.592h122.597zM824.067 467.134c12.31 0 22.291 10.115 22.291 22.592 0 12.477-9.98 22.592-22.291 22.592h-122.598c-12.31 0-22.291-10.114-22.291-22.592 0-12.477 9.98-22.592 22.291-22.592h122.598zM355.966 331.584c12.31 0 22.291 10.114 22.291 22.592 0 12.477-9.98 22.592-22.291 22.592h-122.598c-12.31 0-22.291-10.115-22.291-22.592 0-12.477 9.98-22.592 22.291-22.592h122.598zM601.161 331.584c12.31 0 22.291 10.114 22.291 22.592 0 12.477-9.98 22.592-22.291 22.592h-122.597c-12.31 0-22.291-10.115-22.291-22.592 0-12.477 9.98-22.592 22.291-22.592h122.597zM824.067 331.584c12.31 0 22.291 10.114 22.291 22.592 0 12.477-9.98 22.592-22.291 22.592h-122.598c-12.31 0-22.291-10.115-22.291-22.592 0-12.477 9.98-22.592 22.291-22.592h122.598zM355.966 196.034c12.31 0 22.291 10.115 22.291 22.592 0 12.477-9.98 22.592-22.291 22.592h-122.598c-12.31 0-22.291-10.114-22.291-22.592 0-12.477 9.98-22.592 22.291-22.592h122.598zM601.161 196.034c12.31 0 22.291 10.115 22.291 22.592 0 12.477-9.98 22.592-22.291 22.592h-122.597c-12.31 0-22.291-10.114-22.291-22.592 0-12.477 9.98-22.592 22.291-22.592h122.597zM824.067 196.034c12.31 0 22.291 10.115 22.291 22.592 0 12.477-9.98 22.592-22.291 22.592h-122.598c-12.31 0-22.291-10.114-22.291-22.592 0-12.477 9.98-22.592 22.291-22.592h122.598z"  horiz-adv-x="1024" />

    
    <glyph glyph-name="collection-" unicode="&#59252;" d="M895.099 527.074l-249.995 26.622-99.172 230.675c-26.422 61.458-83.029 61.998-110.899 1.131l-104.279-227.74c-1.106-2.356-1.802-5.103-1.92-8-5.825 1.479-147.376-13.544-161.998-14.767-12.15-1.016-21.159-11.504-20.123-23.426s11.724-20.762 23.874-19.746c14.884 1.245 157.967 17.168 164.198 17.168 17.947 0 34.262 26.676 36.248 31.013l104.278 227.74c12.081 26.385 18.528 26.323 29.937-0.215l99.418-231.248c2.791-6.491 24.584-24.481 32.709-25.345l252.96-26.938c29.306-3.121 31.238-9.156 9.043-28.004l-193.414-164.237c-8.906-7.562-6.14-38.962-5.051-44.073l52.060-244.389c6.031-28.313 0.779-31.981-24.349-17.092l-218.955 129.744c-10.438 6.185-29.961-7.443-30.816-8.265l-212.678-119.546c-25.579-14.377-30.758-10.61-24.091 17.44l58.093 244.424c1.809 7.614-5.588 37.076-12.195 42.953l-188.512 167.689c-9.034 8.036-22.996 7.365-31.185-1.5s-7.505-22.565 1.529-30.6l187.824-167.076c-0.569-1.681-0.944-3.624-1.043-5.639l-57.512-240.411c-15.439-64.959 30.033-98.045 89.041-64.877l213.112 119.789 204.563-121.216c58.19-34.481 104.31-2.271 90.397 63.046l-52.060 244.389c-0.825 3.793-2.558 7.095-4.961 9.786l189.099 156.897c51.401 43.649 34.432 96.641-33.176 103.841z"  horiz-adv-x="1024" />

    
    <glyph glyph-name="treeretraction" unicode="&#59253;" d="M65.552 460.855h893.577v-143.837h-893.577z"  horiz-adv-x="1024" />

    
    <glyph glyph-name="setup" unicode="&#59254;" d="M511.237125 542.411893c-40.209794 0-80.422657-15.341407-111.103424-46.022173-61.362556-61.362556-61.274552-160.855548 0-222.173079 30.643927-30.644951 70.860884-45.988404 111.079888-45.988404 40.197514 0 80.397075 15.314801 111.093191 45.988404 61.361533 61.361533 61.361533 160.876014 0 222.173079-30.659277 30.680766-70.861908 46.022173-111.069655 46.022173z m83.309404-240.414535c-22.262026-22.245653-51.856042-34.496675-83.331917-34.496675-31.485085 0-61.071937 12.246929-83.300194 34.477232-45.931099 45.961798-45.935192 120.717386-0.010233 166.642344 22.258956 22.258956 51.853995 34.518165 83.333964 34.518165 31.473829 0 61.052494-12.255115 83.313497-34.533514 22.249747-22.227234 34.503838-51.801806 34.503838-83.278705 0-31.480992-12.259208-61.0791-34.508955-83.328847zM947.37739 285.620365L859.580788 337.507106c4.116761 30.198789 4.272303 60.794621 0.467651 91.286076l88.349187 52.747342c8.340969 4.980431 11.786441 15.311731 8.106632 24.301475l-43.269479 105.667621c-3.726881 9.097192-13.605879 14.038738-23.121604 11.561314l-98.494245-25.654286c-10.126638 13.508665-20.550035 25.577538-31.628348 36.642548-10.119475 10.129708-21.311375 19.85521-33.976835 29.515221l26.26827 98.66616c2.523473 9.479909-2.337231 19.36914-11.384282 23.161512L635.429659 829.611987c-9.03784 3.790326-19.487843 0.332575-24.484648-8.098445l-52.051493-87.835488c-30.391171 4.118807-61.445444 4.236488-92.079138 0.348948l-51.717895 88.309278c-4.939499 8.433066-15.329127 11.951193-24.374131 8.252964L284.853142 787.320789c-9.125845-3.729951-14.071484-13.647835-11.559267-23.179933l25.908066-98.350982c-13.543458-10.138918-25.66145-20.593014-36.793998-31.723515-10.259668-10.261715-20.079314-21.579481-29.794583-34.360576l-98.210789 26.666337c-9.503445 2.579755-19.448958-2.278903-23.255657-11.360746L66.939063 509.527948c-3.825119-9.128915-0.258896-19.677155 8.31948-24.611537l87.747483-50.470485c-4.290723-30.703279-4.475941-61.882396-0.550539-93.005231l-88.320534-52.311413c-8.380878-4.964058-11.856026-15.322987-8.163937-24.338314l43.267432-105.645109c3.744277-9.144264 13.703093-14.081717 23.244401-11.527544l97.831142 26.164916c10.206456-13.685697 20.780279-25.965371 32.094976-37.288255 9.677407-9.679453 20.453844-19.067264 32.714076-28.487821l-25.04235-99.890034c-2.359744-9.413394 2.511193-19.139919 11.463076-22.887267l105.503893-44.173059c9.009188-3.771907 19.421328-0.349971 24.435528 8.030908l52.539611 87.813998c29.989011-4.018523 60.59917-4.145413 90.821495-0.379647l52.602031-88.339977a19.639293 19.639293 0 0 1 16.878413-9.593496c2.550079 0 5.075599 0.499373 7.435343 1.467421l105.649202 43.266409c9.086959 3.719718 14.027481 13.580297 11.569499 23.085788l-25.49465 98.616019c13.45443 10.086729 25.473161 20.452821 36.499285 31.468712 9.794064 9.795087 19.269879 20.681018 28.755928 33.05279l99.635231-25.325805c9.42158-2.393513 19.191084 2.471284 22.948665 11.44568l44.173059 105.46603c3.791349 9.045003 0.324388 19.4991-8.118912 24.48874z m-65.736167-99.17065l-95.984075 24.399713a19.642362 19.642362 0 0 1-20.780279-7.567349c-10.946306-15.222703-21.63167-27.986401-32.658817-39.015596-12.32777-12.31856-26.180266-23.796986-42.346457-35.093262a19.637246 19.637246 0 0 1-7.763824-21.010523l24.558325-94.992491-74.132394-30.360472-50.647517 85.056188a19.637246 19.637246 0 0 1-20.038382 9.334599 317.554426 317.554426 0 0 0-51.02614-4.149507 313.303612 313.303612 0 0 0-53.505611 4.606925 19.634176 19.634176 0 0 1-20.215414-9.262968l-50.582026-84.541465-74.240864 31.083949 24.124443 96.227622a19.637246 19.637246 0 0 1-7.564279 20.704554c-15.110139 10.892071-27.755134 21.488407-38.655392 32.388665-12.660344 12.670577-24.342408 26.797319-35.710316 43.187615a19.637246 19.637246 0 0 1-21.209044 7.77815l-94.234222-25.203008-30.289863 73.959455 85.038792 50.369178a19.637246 19.637246 0 0 1 9.370414 20.074198c-5.869684 35.782971-5.632277 71.715345 0.708128 106.800421a19.637246 19.637246 0 0 1-9.532097 20.514219l-84.47188 48.585555 30.862915 73.640184 94.602611-25.687032a19.638269 19.638269 0 0 1 21.154809 7.578606c11.113105 15.645328 22.138206 28.872584 33.703613 40.440037 12.459776 12.459776 26.418696 24.026206 42.675962 35.361369a19.635199 19.635199 0 0 1 7.757684 21.108761l-24.952298 94.719268L389.811612 787.792533l49.799196-85.031629a19.639293 19.639293 0 0 1 20.162202-9.449209 317.404 317.404 0 0 0 51.829436 4.284583 312.685535 312.685535 0 0 0 54.008054-4.702092 19.642362 19.642362 0 0 1 20.294209 9.328459l50.110281 84.559884 73.909313-30.982641-25.304315-95.042633a19.639293 19.639293 0 0 1 7.572466-21.038153c15.524578-11.076266 28.612665-22.0062 40.030715-33.432436 12.399401-12.386098 23.933085-26.28669 35.256991-42.500977a19.644409 19.644409 0 0 1 21.048386-7.758707l94.867647 24.709774 30.360472-74.14058-85.068468-50.788733a19.640316 19.640316 0 0 1-9.316179-20.01587c5.714142-35.082006 5.517667-70.411653-0.583285-105.007589a19.635199 19.635199 0 0 1 9.347902-20.313651l84.527139-49.955762-31.022551-74.064856z"  horiz-adv-x="1024" />

    
    <glyph glyph-name="treeexpansion" unicode="&#59255;" d="M586.261 830.789h-145.883v-373.848h-373.848v-145.884h374.871l-0.001-373.846 144.86 0.001v373.845h373.846v145.884h-373.847z"  horiz-adv-x="1024" />

    
    <glyph glyph-name="refresh" unicode="&#59256;" d="M937.316 359.487c-11.955 1.292-22.694-7.35-23.987-19.306-2.658-24.205-6.989-46.038-13.004-67.161-24.594-150.63-191.295-291.812-387.432-291.812-222.454 0.001-402.791 180.337-402.791 402.792s180.336 402.791 402.791 402.791c161.056 0 304.573-95.403 368.53-240.010h-183.464c-12.025 0-21.773-9.748-21.773-21.773 0-12.024 9.748-21.772 21.773-21.772h225.892c12.025 0 21.773 9.748 21.773 21.772v240.010c0 12.025-9.748 21.773-21.773 21.773-12.024 0-21.772-9.748-21.772-21.773v-162.344c-77.905 138.568-225.362 227.662-389.186 227.662-246.504 0-446.335-199.831-446.335-446.335s199.831-446.335 446.335-446.335c217.349 0 402.052 156.427 439.495 368.083 4.016 21.599 6.474 46.617 6.79 72.15-1.263-30.443-9.906-19.703-21.861-18.411zM902.079 525.009z"  horiz-adv-x="1024" />

    
    <glyph glyph-name="Folder" unicode="&#59257;" d="M959.624 530.252c0 62.045-50.078 112.23-112.021 112.23h-326.384l-113.229 110.977h-343.616v-629.631c0-62.14 50.073-112.569 111.787-112.569h661.050c12.361 0 22.381 10.069 22.381 22.491s-10.020 22.491-22.381 22.491h-661.050c-36.97 0-67.023 30.268-67.023 67.587v280.975h805.724v-270.991c0-12.421 10.019-22.491 22.381-22.491s22.382 10.069 22.382 22.491v396.439zM109.138 449.786v258.692h280.638l113.229-110.978h344.598c37.25 0 67.26-30.074 67.26-67.249v-80.466h-805.725z"  horiz-adv-x="1024" />

    
    <glyph glyph-name="download" unicode="&#59259;" d="M932.92-60.784h-839.366c-13.323 0-24.426 11.103-24.426 24.426s11.103 24.426 24.426 24.426h839.367c13.323 0 24.426-11.103 24.426-24.426s-11.104-24.426-24.427-24.426zM872.966 501.014c-8.882 8.882-26.647 8.882-35.529 0l-301.994-299.773v601.767c0 13.323-8.882 24.426-22.206 24.426s-22.206-11.103-22.206-24.426v-601.769l-301.993 299.774c-8.882 8.882-26.647 8.882-35.529 0s-8.882-24.426 0-35.529l341.964-341.964c2.221-2.221 2.221-2.221 4.441-2.221l2.221-2.221c6.662-2.221 13.323-2.221 19.985 0 2.221 0 2.221 2.221 2.221 2.221 2.221 0 4.441 2.221 4.441 2.221l341.963 341.965c11.103 11.102 11.103 26.646 2.221 35.528z"  horiz-adv-x="1024" />

    
    <glyph glyph-name="drop-down" unicode="&#59260;" d="M959.451 576.367l-60.203 58.882-387.53-387.597-387.529 387.597-60.201-58.882 447.73-447.8 447.733 447.8z"  horiz-adv-x="1024" />

    
    <glyph glyph-name="Smilingface" unicode="&#59261;" d="M958.135 382.66c0 246.207-199.59 445.797-445.797 445.797s-445.798-199.59-445.798-445.797 199.59-445.798 445.797-445.798c102.228 0 199.239 34.54 277.551 96.92 9.395 7.483 10.944 21.165 3.461 30.559-7.482 9.394-21.165 10.943-30.559 3.46-70.68-56.3-158.157-87.447-250.453-87.447-222.186 0-402.306 180.119-402.306 402.306s180.119 402.305 402.306 402.305 402.306-180.119 402.306-402.306c0-76.18-21.188-149.183-60.582-212.416-6.351-10.194-3.236-23.607 6.958-29.956 10.193-6.351 23.605-3.236 29.956 6.957 43.662 70.087 67.16 151.046 67.16 235.416zM360.113 393.533c30.026 0 54.366 24.34 54.366 54.365s-24.34 54.365-54.366 54.365c-30.024 0-54.364-24.34-54.364-54.366-0.001-30.024 24.339-54.364 54.364-54.364zM686.307 393.533c30.025 0 54.365 24.34 54.365 54.365s-24.34 54.365-54.366 54.365c-30.024 0-54.365-24.34-54.365-54.366 0-30.024 24.341-54.364 54.366-54.364zM373.712 159.090c37.768-30.215 87.387-48.258 149.499-48.258s111.73 18.043 149.499 48.258c23.085 18.468 37.175 37.253 43.921 50.748 5.37 10.743 1.017 23.805-9.726 29.177-10.742 5.37-23.805 1.017-29.175-9.726-0.799-1.597-3.015-5.246-6.781-10.268-6.586-8.781-15.010-17.649-25.41-25.968-30.188-24.151-70.275-38.727-122.329-38.727-52.056 0-92.141 14.576-122.33 38.727-10.4 8.321-18.824 17.187-25.409 25.968-3.768 5.022-5.981 8.67-6.781 10.268-5.371 10.743-18.434 15.096-29.177 9.726-10.742-5.371-15.096-18.434-9.724-29.177 6.75-13.493 20.839-32.28 43.923-50.748z"  horiz-adv-x="1024" />

    
    <glyph glyph-name="user" unicode="&#59262;" d="M756.532 568.806v-0.001zM622.872 342.269c79.654 43.869 133.661 128.865 133.661 226.537 0 142.599-115.108 258.199-257.101 258.199s-257.102-115.6-257.102-258.2c0-142.6 115.108-258.201 257.101-258.201 3.074 0 6.13 0.074 9.178 0.181 0.623-0.112 1.282-0.18 2.001-0.18 207.553 0 386.44-147.985 401.399-314.33h-802.927c8.757 110.354 81.674 209.614 194.785 266.481 11.040 5.55 15.51 19.040 9.982 30.127-5.527 11.089-18.959 15.577-29.999 10.025-135.153-67.948-220.372-191.893-220.372-329.085v-22.452h894.263v22.452c0 169.263-145.873 323.375-334.87 368.444zM287.044 568.805c0 117.8 95.089 213.295 212.387 213.295s212.387-95.496 212.387-213.296-95.089-213.295-212.387-213.295-212.387 95.496-212.387 213.296z"  horiz-adv-x="1024" />

    
    <glyph glyph-name="move" unicode="&#59263;" d="M501.993-56.024c6.005-2.504 12.828-2.504 18.877 0 2.969 1.241 5.65 3.014 7.887 5.251 0.033 0.006 0.063 0.018 0.088 0.036l137.521 137.529c9.615 9.615 9.615 25.212 0 34.806-9.593 9.593-25.169 9.593-34.763-0.021l-95.579-95.557 0.023 290.238c0 13.581-11.012 24.593-24.593 24.593-13.58 0-24.593-10.989-24.593-24.571v-290.261l-95.557 95.557c-9.615 9.592-25.191 9.592-34.74 0-9.615-9.615-9.637-25.192-0.044-34.784l137.564-137.543c0.71-0.71 1.64-1.019 2.438-1.618 1.684-1.373 3.39-2.792 5.473-3.655zM520.871 826.434c-2.785 1.188-6.026 1.878-9.427 1.878s-6.642-0.69-9.588-1.939c-4.369-1.825-8.093-4.886-10.736-8.746 2.965 3.577 2.921 3.534 2.921 3.534l-137.543-137.52c-9.615-9.615-9.615-25.213 0-34.807 9.593-9.592 25.169-9.592 34.763 0.023l95.579 95.557-0.023-290.238c0-13.581 11.012-24.593 24.593-24.593 13.581 0 24.616 10.988 24.616 24.571v290.261l95.557-95.557c9.615-9.593 25.191-9.593 34.739 0 9.616 9.615 9.66 25.191 0.045 34.784l-137.566 137.52c-0.709 0.731-1.64 1.041-2.438 1.639-1.706 1.351-3.412 2.769-5.493 3.633zM952.661 375.766c2.504 6.005 2.504 12.828 0 18.877-1.866 4.495-4.905 8.188-8.74 10.801 3.511-2.892 3.468-2.848 3.468-2.848l-137.52 137.543c-9.615 9.615-25.235 9.615-34.828 0-9.572-9.593-9.572-25.169 0.044-34.763l95.535-95.579-290.238 0.023c-13.581 0-24.571-11.012-24.571-24.593 0-13.58 10.988-24.593 24.571-24.593h290.238l-95.535-95.557c-9.615-9.615-9.615-25.191 0-34.74 9.615-9.615 25.191-9.637 34.784-0.044l137.521 137.564c0.731 0.71 1.041 1.64 1.639 2.438 1.35 1.684 2.768 3.39 3.632 5.473zM70.202 394.643c-1.188-2.785-1.878-6.026-1.878-9.427s0.69-6.642 1.939-9.588c1.787-4.327 4.812-8.017 8.632-10.627l-3.421 2.835 137.52-137.564c9.615-9.616 25.235-9.616 34.828 0 9.572 9.615 9.572 25.19-0.044 34.783l-95.535 95.58 290.238-0.045c13.581 0 24.571 11.034 24.571 24.593 0 13.581-10.988 24.616-24.571 24.616l-290.238-0.023 95.535 95.557c9.615 9.615 9.615 25.191 0 34.74-9.615 9.615-25.191 9.66-34.784 0.044l-137.52-137.565c-0.731-0.71-1.041-1.64-1.639-2.438-1.351-1.683-2.769-3.389-3.633-5.472z"  horiz-adv-x="1024" />

    
    <glyph glyph-name="edit" unicode="&#59264;" d="M725.963 666.702l89.659-65.535 29.729 39.294-89.104 65.131zM868.121 456.587c-13.503 0-24.451-11.073-24.451-24.732v-449.010h-593.613c-40.417 0-73.374 33.224-73.374 74.014v560.639h369.356c13.505 0 24.451 11.073 24.451 24.733 0 13.657-10.946 24.73-24.451 24.73h-418.256v-610.102c0-68.147 54.889-123.477 122.274-123.477h642.513v498.474c0 13.659-10.948 24.732-24.45 24.732zM937.002 721.353l-145.198 109.84-409.31-525.627-0.203-8.224-3.606-146.066-0.889-35.963 181.013 65.035 397.996 526.027-19.802 14.978zM528.785 222.051l-100.327-36.045 2.514 101.876 369.738 474.81 87.206-65.972-359.131-474.67z"  horiz-adv-x="1024" />

    
    <glyph glyph-name="Addchilditems" unicode="&#59265;" d="M789.925-11.989h-602.464c-39.936 0-72.178 32.13-72.178 71.95v722.865h722.929c39.757 0 71.885-32.122 71.885-71.979v-746.869c0-13.273 10.756-24.034 24.035-24.034 13.268 0 24.035 10.761 24.035 24.034v746.869c0 66.407-53.651 120.047-119.957 120.047h-770.998v-770.933c0-66.402 53.803-120.017 120.248-120.017h602.464c13.273 0 24.034 10.761 24.034 24.034 0 13.273-10.761 24.034-24.034 24.034zM798.088 410.691h-265.217v260.524c0 11.062-8.966 20.030-20.028 20.030-11.061 0-20.027-8.968-20.027-20.030v-260.523h-265.219c-11.062 0-20.029-8.966-20.029-20.028s8.967-20.027 20.029-20.027h265.219v-265.219c0-11.062 8.966-20.029 20.027-20.029 11.062 0 20.028 8.967 20.028 20.029v265.218h265.218c11.062 0 20.030 8.966 20.030 20.027-0.001 11.063-8.969 20.028-20.031 20.028z"  horiz-adv-x="1024" />

    
    <glyph glyph-name="uncheckbox" unicode="&#59266;" d="M66.91 829.783v-891.507h891.507v891.507h-891.507zM921.279-24.586h-817.229v817.229h817.229v-817.229z"  horiz-adv-x="1024" />

    
    <glyph glyph-name="pagedown" unicode="&#59267;" d="M733.548 333.149c36.652 33.217 36.158 87.889-1.213 120.588l-421.306 368.644c-12.081 10.57-30.443 9.346-41.014-2.736-10.572-12.079-9.347-30.443 2.734-41.014l421.305-368.642c11.214-9.812 11.342-23.899 0.456-33.765l-422.14-382.566c-11.895-10.78-12.8-29.161-2.019-41.056 10.78-11.895 29.161-12.8 41.057-2.019l422.139 382.566z"  horiz-adv-x="1024" />

    
    <glyph glyph-name="pageup" unicode="&#59268;" d="M289.978 439.478c-36.652-33.217-36.158-87.889 1.213-120.588l421.307-368.644c12.081-10.57 30.443-9.347 41.014 2.736 10.572 12.079 9.347 30.443-2.734 41.014l-421.305 368.642c-11.214 9.812-11.342 23.899-0.456 33.765l422.14 382.566c11.895 10.78 12.8 29.161 2.019 41.056-10.78 11.895-29.161 12.8-41.057 2.019l-422.14-382.566z"  horiz-adv-x="1024" />

    
    <glyph glyph-name="linechart" unicode="&#59270;" d="M885.028 603.608l-251.996-284.659c-1.327-1.476-3.022-2.507-5.013-2.507h-0.295c-1.878 0.013-3.59 0.717-4.895 1.87l-288.316 272.246-278.76-280.838 82.13-84.389 196.262 202.97c1.326 1.549 3.169 2.36 5.013 2.36 1.695 0 3.465-0.664 4.791-1.99l289.526-274.856 329.634 379.326-78.080 70.468z"  horiz-adv-x="1024" />

    
    <glyph glyph-name="histogram" unicode="&#59271;" d="M66.317 472.675h229.166v-455.893h-229.166v455.893zM404.51 749.347h229.166v-732.563h-229.166v732.563zM728.701 372.672h229.167v-355.891h-229.167v355.891z"  horiz-adv-x="1024" />

    
    <glyph glyph-name="trash" unicode="&#59007;" d="M641.337 739.791v93.067h-252.108v-93.067h-237.526v-89.345h728.399v89.345h-238.765zM185.208 589.643l53.358-650.222h554.675l53.358 650.222h-661.391zM412.29 63.51h-70.472l-15.149 414.454h85.621v-414.454zM557.472 63.51h-84.379v414.453h84.379v-414.453zM692.47 63.51h-72.954v414.453h88.103l-15.149-414.453z"  horiz-adv-x="1024" />

    
    <glyph glyph-name="edit2" unicode="&#59008;" d="M499.007 468.137zM331.367-9.315l-264.52-48.822 53.366 259.98 211.153-211.158zM746.317 827.948l-94.748-94.746 211.161-211.155 94.748 94.744-211.161 211.157zM167.539 249.165l211.159-211.152 436.707 436.699-211.157 211.163-436.709-436.71z"  horiz-adv-x="1024" />

    
    <glyph glyph-name="add2" unicode="&#59009;" d="M586.261 830.789h-145.883v-373.848h-373.848v-145.884h374.871l-0.001-373.846 144.86 0.001v373.845h373.846v145.884h-373.847z"  horiz-adv-x="1024" />

    
    <glyph glyph-name="pull-down2" unicode="&#59010;" d="M957.767 545.904l-447.062-447.291-447.034 447.291 127.594 127.618 319.44-319.428 319.44 319.429 127.622-127.619z"  horiz-adv-x="1024" />

    
    <glyph glyph-name="crumbs" unicode="&#59011;" d="M753.532 403.535l-447.19 353.559c-10.774 10.667-28.056 10.562-38.617-0.053-10.668-10.721-10.668-28.002 0-38.671l427.781-334.197-427.781-334.251c-10.668-10.668-10.668-27.95 0-38.618 5.332-5.333 12.266-8.001 19.308-8.001 7.542 0.002 14.369 3.060 19.31 8.003l447.188 353.504c5.346 5.348 7.993 12.348 7.981 19.362 0.014 7.014-2.634 14.016-7.98 19.362z"  horiz-adv-x="1024" />

    
    <glyph glyph-name="smallclose" unicode="&#59012;" d="M714.123 623.184l-200.293-200.285-200.293 200.285c-10.794 10.794-28.289 10.794-39.081 0s-10.79-28.287 0-39.075l200.293-200.285-200.293-200.287c-10.79-10.794-10.79-28.287 0-39.075 10.794-10.794 28.289-10.794 39.078 0l200.293 200.285 200.293-200.285c10.79-10.794 28.287-10.794 39.081 0 10.794 10.79 10.794 28.286 0 39.075l-200.293 200.285 200.293 200.285c10.794 10.794 10.794 28.287 0 39.075-10.79 10.794-28.289 10.794-39.081 0.002z"  horiz-adv-x="1024" />

    
    <glyph glyph-name="password1" unicode="&#59014;" d="M875.624 744.691c-111.082 111.979-292.184 112.678-404.162 1.596-89.245-91.253-95.822-213.121-60.505-301.6l-346.858-311.745v-193.581l175.823-0.501v111.682l111.482 0.693v110.098l109.404 0.694 1.117 64.682 87.198 60.082 0.25-0.003c109.814-40.632 235.209-31.94 324.65 53.74 115.8 110.934 112.779 292.086 1.6 404.164zM797.094 542.058c-34.718-34.471-90.712-34.141-125.102 0.494-34.387 34.637-34.219 90.63 0.497 125.102 34.715 34.469 90.71 34.14 125.097-0.497 34.389-34.634 34.225-90.627-0.492-125.099z"  horiz-adv-x="1024" />

    
    <glyph glyph-name="email" unicode="&#59015;" d="M902.3 717.449h-779.391c-32.129 0-58.173-25.793-58.173-57.612v-554.732c0-31.818 26.045-57.61 58.173-57.61h779.391c32.128 0 58.172 25.791 58.172 57.61v554.732c-0.001 31.819-26.044 57.612-58.172 57.612zM367.982 336.792l-227.612-227.609c-0.526-0.523-1.251-0.847-2.052-0.847-0.8 0-1.525 0.323-2.051 0.846l-12.303 12.304c-0.524 0.526-0.847 1.252-0.847 2.053s0.324 1.527 0.847 2.053l227.611 227.609c0.526 0.524 1.251 0.848 2.052 0.848 0.801 0 1.526-0.324 2.051-0.848l12.304-12.304c0.523-0.526 0.846-1.252 0.846-2.053s-0.323-1.526-0.847-2.053zM901.242 121.485l-12.303-12.304c-0.526-0.523-1.252-0.846-2.052-0.846-0.801 0-1.527 0.324-2.053 0.847l-227.611 227.61c-0.523 0.526-0.846 1.252-0.846 2.052 0 0.801 0.323 1.527 0.847 2.053l12.304 12.304c0.526 0.523 1.252 0.846 2.052 0.846 0.801 0 1.527-0.324 2.053-0.847l227.609-227.61c0.523-0.526 0.846-1.252 0.846-2.053s-0.323-1.526-0.847-2.053zM902.612 638.302l-388.456-366.861c-0.539-0.53-1.278-0.857-2.094-0.857-0.023 0-0.046 0-0.068 0.001-0.020-0.001-0.048-0.001-0.076-0.001-0.815 0-1.553 0.327-2.090 0.858l-1.767 1.767-385.465 363.799c-0.548 0.514-0.889 1.243-0.889 2.051 0 0.779 0.317 1.484 0.829 1.993l28.577 28.578c0.519 0.518 1.236 0.838 2.027 0.838 0.804 0 1.53-0.33 2.051-0.862l356.843-365.781 358.088 366.97c0.521 0.534 1.247 0.865 2.051 0.865 0.792 0 1.509-0.322 2.027-0.841l28.469-28.47c0.512-0.51 0.83-1.215 0.83-1.995 0-0.807-0.34-1.535-0.885-2.048z"  horiz-adv-x="1024" />

    
    <glyph glyph-name="hint" unicode="&#59013;" d="M511.998 833.647c60.405 0 119.075-11.803 174.272-35.179 53.347-22.565 101.139-54.85 142.218-95.93 41.082-41.080 73.362-88.989 95.932-142.218 23.373-55.198 35.177-113.866 35.177-174.273s-11.803-119.073-35.176-174.272c-22.57-53.345-54.853-101.136-95.932-142.218-41.082-41.082-88.988-73.365-142.218-95.932-55.195-23.376-113.864-35.179-174.272-35.179-60.404 0-119.075 11.803-174.271 35.179-53.348 22.567-101.138 54.853-142.218 95.932-41.082 41.082-73.364 88.986-95.933 142.218-23.374 55.199-35.177 113.867-35.177 174.273s11.803 119.074 35.176 174.273c22.569 53.345 54.852 101.138 95.933 142.218 41.081 41.080 88.986 73.365 142.218 95.93 55.195 23.376 113.866 35.178 174.271 35.178zM511.998 1.202c102.87 0 199.454 40.004 272.262 112.7 72.698 72.694 112.702 169.392 112.702 272.147 0 102.871-40.004 199.453-112.701 272.147-72.695 72.694-169.39 112.7-272.263 112.7-102.867 0-199.451-40.006-272.263-112.7-72.695-72.695-112.701-169.392-112.701-272.147 0-102.868 40.006-199.454 112.701-272.147 72.811-72.697 169.395-112.7 272.263-112.7zM551.922 110.869l-8.448 389.51h-60.635l-8.448-389.51h77.532zM546.947 595.5c9.72 9.489 14.576 20.944 14.576 34.483 0 13.771-4.858 25.342-14.576 34.715-9.72 9.372-21.411 14.001-34.948 14.001-13.538 0-25.226-4.627-34.946-14.001s-14.58-20.944-14.58-34.715c0-13.539 4.86-25.111 14.58-34.483 9.721-9.489 21.408-14.235 34.946-14.235 13.537 0 25.228 4.746 34.948 14.235z"  horiz-adv-x="1024" />

    
    <glyph glyph-name="user2" unicode="&#59016;" d="M63.95 384.265c-0-0.006-0-0.014-0-0.021 0-247.281 200.461-447.743 447.743-447.743 247.281 0 447.743 200.461 447.743 447.743 0 0.007-0 0.015-0 0.022 0 0.005 0 0.013 0 0.020 0 247.281-200.461 447.743-447.743 447.743-247.281 0-447.743-200.461-447.743-447.743 0-0.007 0-0.015 0-0.022zM471.627-61.709l23.573-1.472 20.334-0.298 36.655 1.807 19.223 2.142 17.037 2.605 16.171 3.103 22.601 5.396 12.511 3.522 11.838 3.707 23.506 8.464 16.486 6.849 21.299 10.034 18.977 10.141 11.406 6.677 9.653 6.012 9.316 6.134 16.309 11.567 17.546 13.73 15.313 13.192 14.986 14.105 32.43 35.703s-31.759 38.983-56.503 51.7c-29.952 15.362-39.159 17.166-50.070 19.063s-23.527 3.885-60.296 19.617c-36.739 15.702-59.457 26.113-72.99 32.597s-17.883 9.046-17.883 9.046l-0.339 36.028-0.34 36.028s6.879 5.398 14.837 19.318 16.996 36.359 21.315 70.444c8.575-2.591 14.311 2.606 18.028 10.518 3.717 7.912 5.413 18.539 5.907 26.806 0.493 8.021 3.023 24.5 2.799 38.416-0.223 13.916-3.2 25.266-13.717 23.030 2.158 16.656 4.087 32.511 5.282 46.196s1.657 25.198 0.886 33.17c-2.622 27.977-13.309 56.58-35.163 78.719-21.854 22.14-54.875 37.818-102.162 39.946-40.224-2.144-73.383-17.829-97.142-39.972-23.759-22.143-38.118-50.746-40.74-78.722-0.772-7.974-0.386-19.487 0.733-33.175 1.118-13.688 2.97-29.55 5.129-46.223-10.519 2.251-13.511-9.115-13.757-23.042-0.247-13.926 2.251-30.414 2.714-38.403 0.493-8.298 2.159-18.955 5.861-26.89 3.702-7.936 9.439-13.148 18.076-10.556 4.257-34.085 13.263-56.557 21.206-70.505 7.943-13.951 14.822-19.379 14.822-19.379l-0.34-36.216-0.339-36.214s-4.349-2.747-17.883-9.415-36.252-17.264-72.989-32.966c-36.768-15.763-49.385-17.398-60.296-18.933-10.913-1.533-20.119-2.968-50.070-18.329-28.102-14.444-61.737-60.124-61.737-60.124s7.599-9.271 19.060-20.869c15.223-15.407 36.889-35.285 53.001-46.568 0.002 0.002 88.289-74.495 227.933-87.26z"  horiz-adv-x="1024" />

    
    <glyph glyph-name="table" unicode="&#59017;" d="M66.306 778.953v-786.376h893.69v786.376h-893.69zM411.803 301.842v166.459h202.693v-166.458l-202.693-0.001zM614.497 230.44v-166.458h-202.693v166.458h202.693zM614.497 706.163v-166.46h-202.693v166.46h202.693zM340.401 706.163v-166.46h-202.693v166.46h202.693zM137.708 468.301h202.693v-166.458h-202.693v166.458zM685.9 468.301h202.692v-166.458h-202.692v166.458zM685.9 539.703v166.46h202.692v-166.46h-202.692zM137.708 230.44h202.693v-166.458h-202.693v166.458zM685.9 63.981v166.458h202.692v-166.458h-202.692z"  horiz-adv-x="1024" />

    
    <glyph glyph-name="search" unicode="&#59258;" d="M960.932-1.642l-268.851 268.851c46.254 59.482 73.812 134.223 73.812 215.407 0 193.975-157.247 351.222-351.222 351.222s-351.223-157.246-351.223-351.221 157.247-351.222 351.222-351.222c79.994 0 153.726 26.762 212.775 71.794l269.159-269.159 64.328 64.328zM130.067 482.617c0 157.182 127.421 284.603 284.603 284.603s284.603-127.421 284.603-284.603-127.42-284.604-284.602-284.604-284.604 127.421-284.604 284.604z"  horiz-adv-x="1024" />

    
    <glyph glyph-name="checkbox" unicode="&#59247;" d="M410.37 54.237l-345.236 303.807 89.761 103.572 248.57-220.951 455.709 462.616 96.667-96.667-545.471-552.378z"  horiz-adv-x="1024" />

    
    <glyph glyph-name="smallclose1" unicode="&#59018;" d="M511.394 828.992c-245.618 0-444.732-199.115-444.732-444.733 0-245.619 199.114-444.733 444.732-444.733 245.619 0 444.734 199.114 444.734 444.733 0 245.618-199.115 444.733-444.734 444.733zM726.317 223.096l-53.759-53.76-161.164 161.165-161.164-161.164-53.759 53.76 161.164 161.163-161.164 161.163 53.717 53.759 161.194-161.176 161.176 161.176 53.76-53.759-161.175-161.172 161.173-161.154z"  horiz-adv-x="1024" />

    
    <glyph glyph-name="add" unicode="&#59019;" d="M510.751 830.625c-246.57 0-446.455-199.888-446.455-446.458s199.883-446.455 446.455-446.455c246.573 0 446.456 199.884 446.456 446.455s-199.885 446.458-446.456 446.458zM510.751 1.448c-211.37 0-382.717 171.352-382.717 382.719 0 211.372 171.346 382.719 382.717 382.719 211.368 0 382.719-171.346 382.719-382.719-0.001-211.367-171.35-382.719-382.719-382.719zM763.45 421.149h-215.718v215.718h-73.962v-215.718h-215.719v-73.962h215.719v-215.72h73.962v215.72h215.718v73.962z"  horiz-adv-x="1024" />

    
    <glyph glyph-name="question" unicode="&#59020;" d="M959 384.438c0.388-246.902-199.314-447.001-446.564-447.439-246.863-0.437-446.941 199.253-447.438 446.564-0.488 246.802 199.301 446.99 446.563 447.439 246.841 0.446 447.042-199.363 447.439-446.564zM908.073 383.616c0.855 217.615-175.505 394.519-395.239 396.458-217.141 1.92-396.092-176.489-396.91-395.69-0.817-217.664 175.553-394.566 395.237-396.456 217.194-1.872 396.046 176.427 396.912 395.688zM534.838 238.088h-59.178c-1.593 24.689 0.197 48.695 9.122 71.941 11.538 30.062 33.236 52.495 55.548 74.489 15.48 15.26 31.555 29.973 46.386 45.839 27.931 29.903 34.209 76.278 16.203 113.065-9.637 19.697-25.077 33.265-45.571 40.339-27.723 9.578-56.084 10.057-83.917 0.895-38.945-12.823-56.931-43.172-64.314-81.224-2.246-11.609-2.883-23.536-4.306-35.733h-58.461c-1.185 19.827 1.262 38.835 6.425 57.379 20.063 72.021 77.393 116.188 152.24 118.189 33.791 0.907 66.769-2.238 97.178-18.373 43.838-23.268 67.077-60.402 71.545-109.425 3.32-36.416-2.728-70.916-24.056-101.466-5.202-7.452-11.766-14.105-18.422-20.363-17.638-16.574-35.713-32.667-53.52-49.054-27.823-25.604-42.855-56.859-41.742-95.197 0.090-3.054-0.068-6.118-0.208-9.172-0.028-0.547-0.467-1.075-0.955-2.128zM550.905 140.062c-0.149-26.063-19.587-45.021-45.791-44.673-25.715 0.338-45.141 20.265-44.814 45.957 0.318 24.871 20.512 44.010 46.047 43.652 25.865-0.357 44.706-19.371 44.558-44.935z"  horiz-adv-x="1024" />

    
    <glyph glyph-name="area" unicode="&#59021;" d="M63.207 408.268l317.048 217.842 344.271-118.183 231.304 98.839v-92.181l-231.559-207.076-350.579 237.489-310.485-241.034v104.304zM63.207 285.741l291.814 136.256 378.929-174.090 221.879 164.393v96.772l-231.384-206.673-350.672 237.551-310.567-241.19v-13.020zM64.505 228.911l293.683 100.282 377.482-116.755 220.16 168.877v25.873l-221.397-164.036-379.803 172.354-291.391-134.299 1.266-52.297zM955.83 252.446v123.721l-219.596-167.653-377.971 116.363-293.689-100.283v-27.528l294.481 27.856 353.208-43.249 243.567 70.773zM955.83 248.167l-243.232-70.676-353.601 43.298-294.424-27.849v-60.188h891.257v115.415z"  horiz-adv-x="1024" />

    
    <glyph glyph-name="stackedbar" unicode="&#59022;" d="M425.013 645.933h169.613v-177.177h-169.613v177.177zM425.013 468.755h169.613v-144.634h-169.613v144.634zM425.013 324.692h169.613v-199.141h-169.613v199.141zM154.945 375.318h169.613v-90.674h-169.613v90.674zM154.945 284.691h169.613v-52.978h-169.613v52.978zM154.945 231.714h169.613v-106.163h-169.613v106.163zM704.986 479.12h169.614v-146.529h-169.614v146.529zM704.986 332.638h169.614v-97.513h-169.614v97.513zM704.986 235.125h169.614v-109.575h-169.614v109.575zM63.315 125.523h898.473v-3.523h-898.473v3.523z"  horiz-adv-x="1024" />

    
    <glyph glyph-name="groupedbar" unicode="&#59023;" d="M193.521 485.41h174.432v-371.829h-174.432v371.829zM434.643 637.357h164.198v-523.776h-164.198v523.776zM665.436 361.463h164.197v-247.883h-164.197v247.883zM67.76 115.116h890.784v-3.070h-890.784v3.070z"  horiz-adv-x="1024" />

    
    <glyph glyph-name="line" unicode="&#59024;" d="M299.655 285.69l-235.251 252.12 11.972 11.17 225.808-242.001 352.664 232.88 304.136-88.705-4.584-15.719-296.858 86.583zM658.1 240.115l-356.564 286.181-232.538-128.988-7.942 14.317 242.153 134.322 353.912-284.053 293.894 282.77 11.353-11.8zM655.505 199.883l-354.836 206.193-228.829-117.029-7.455 14.577 236.784 121.098 355.854-206.785 298.352 111.841 5.746-15.331zM953.782 193.223l-298.070 194.062-346.357-178.295-242.363 33.514 2.242 16.218 237.233-32.804 350.209 180.276 306.039-199.251z"  horiz-adv-x="1024" />

    
    <glyph glyph-name="prompt1" unicode="&#59026;" d="M517.073-62.132c-60.145 0-118.561 11.753-173.52 35.029-53.118 22.468-100.704 54.614-141.606 95.516-40.905 40.902-73.045 88.605-95.517 141.604-23.273 54.961-35.026 113.375-35.026 173.523 0 60.146 11.752 118.559 35.025 173.52 22.473 53.115 54.616 100.702 95.517 141.606 40.906 40.905 88.604 73.049 141.606 95.518 54.957 23.276 113.373 35.028 173.52 35.028 60.144 0 118.562-11.752 173.52-35.028 53.119-22.47 100.703-54.617 141.606-95.518 40.905-40.905 73.048-88.603 95.519-141.606 23.274-54.961 35.026-113.375 35.026-173.521s-11.752-118.56-35.025-173.523c-22.472-53.115-54.616-100.702-95.518-141.604-40.905-40.903-88.603-73.049-141.606-95.516-54.959-23.276-113.376-35.028-173.521-35.028zM517.073 766.726c-102.427 0-198.594-39.832-271.088-112.215-72.385-72.38-112.217-168.662-112.217-270.975 0-102.428 39.832-198.593 112.216-270.975 72.382-72.38 168.66-112.215 271.089-112.215 102.424 0 198.592 39.834 271.090 112.215 72.38 72.382 112.215 168.662 112.215 270.975 0 102.424-39.834 198.594-112.215 270.975-72.499 72.384-168.665 112.215-271.090 112.215zM477.323 657.531l8.412-387.832h60.374l8.413 387.832h-77.198zM482.274 174.989c-9.678-9.448-14.514-20.854-14.514-34.335 0-13.71 4.836-25.232 14.514-34.564 9.678-9.333 21.319-13.941 34.797-13.941 13.48 0 25.117 4.608 34.795 13.941 9.678 9.333 14.518 20.854 14.518 34.564 0 13.482-4.839 25.003-14.518 34.335-9.679 9.448-21.315 14.174-34.795 14.174-13.477 0-25.118-4.726-34.797-14.174z"  horiz-adv-x="1024" />

    
    <glyph glyph-name="switcher" unicode="&#59025;" d="M65.774 608.507h223.736v223.736h-223.736v-223.736zM401.377 608.507h223.736v223.736h-223.736v-223.736zM736.981 832.243v-223.736h223.736v223.736h-223.736zM65.774 272.904h223.736v223.736h-223.736v-223.736zM401.377 272.904h223.736v223.736h-223.736v-223.736zM736.981 272.904h223.736v223.736h-223.736v-223.736zM65.774-62.7h223.736v223.736h-223.736v-223.736zM401.377-62.7h223.736v223.736h-223.736v-223.736zM736.981-62.7h223.736v223.736h-223.736v-223.736z"  horiz-adv-x="1024" />

    
    <glyph glyph-name="pie" unicode="&#59027;" d="M262.549 456.782c-6.681-22.599-10.408-46.473-10.408-71.237 0-10.057 0.761-19.926 1.91-29.67l249.242 29.67-240.745 71.237zM383.099 610.417c-56.028-30.748-98.606-82.803-117.060-145.25l234.625-69.427-117.565 214.675zM255.1 344.269c9.916-84.126 61.685-155.285 133.966-192.306l113.339 221.746-247.304-29.44zM401.283 147.888c35.019-17.935 74.584-28.253 116.63-28.253 141.624 0 256.432 114.809 256.432 256.438h-256.431l-116.63-228.186zM517.514 648.396c-44.785 0-86.868-11.488-123.542-31.617l123.542-225.591h257.208c0 142.052-115.156 257.208-257.208 257.208z"  horiz-adv-x="1024" />

    
    <glyph glyph-name="Linecolumn" unicode="&#59028;" d="M190.643 493.601h174.718v-372.439h-174.718v372.439zM432.162 645.799h164.468v-524.637h-164.468v524.637zM663.334 369.451h164.467v-248.29h-164.467v248.29zM64.676 122.699h892.248v-3.075h-892.248v3.075zM266.913 312.5l-9.904 15.807 264.653 169.088 230.553-71.395-5.129-18.687-222.010 69.026-258.163-163.84z"  horiz-adv-x="1024" />

    
    <glyph glyph-name="ring" unicode="&#59029;" d="M683.338 463.057l71.897 33.507c-37.77 80.9-114.751 139.755-206.518 152.177l-10.734-78.577c64.59-8.743 118.771-50.169 145.356-107.108zM693.471 436.082c4.857-16.718 7.511-34.375 7.511-52.659 0-104.111-84.397-188.509-188.509-188.509s-188.508 84.398-188.508 188.509 84.397 188.508 188.509 188.508v79.319c-147.917 0-267.828-119.911-267.828-267.828s119.911-267.828 267.828-267.828 267.828 119.911 267.828 267.828c0 25.98-3.772 51.066-10.672 74.82l-76.159-22.159z"  horiz-adv-x="1024" />

    
    <glyph glyph-name="operationlog1" unicode="&#59030;" d="M791.773-59.265h-553.687c-61.158 0-110.737 49.58-110.737 110.737v609.056c0 61.158 49.58 110.737 110.737 110.737h27.684v-83.053c0-15.29 12.394-27.684 27.684-27.684h442.95c15.29 0 27.684 12.394 27.684 27.684v83.053h27.684c61.158 0 110.737-49.58 110.737-110.737v-609.056c0.004-61.157-49.576-110.737-110.734-110.737zM348.824 494.423h-55.369v-55.369h55.369v55.369zM348.824 328.317h-55.369v-55.369h55.369v55.369zM348.824 162.211h-55.369v-55.369h55.369v55.369zM736.405 494.423h-332.213v-55.369h332.213v55.369zM736.405 328.317h-332.213v-55.369h332.213v55.369zM736.405 162.211h-332.213v-55.369h332.213v55.369zM681.036 715.898h-332.212c-15.29 0-27.684 12.394-27.684 27.684v55.37c0 15.29 12.394 27.684 27.684 27.684h332.212c15.29 0 27.684-12.394 27.684-27.684v-55.369c0-15.29-12.393-27.685-27.684-27.685z"  horiz-adv-x="1024" />

    
    <glyph glyph-name="Onthemanagement" unicode="&#59031;" d="M67.831 476.176l54.218-462.232h779.191l54.219 462.232h-887.628zM643.117 215.13h-271.738v66.388h271.738v-66.388zM308.896 622.115h401.088v-73.025h-401.088zM742.676 685.941l42.776-164.475h76.449l-54.219 230.82h-600.871l-54.219-230.82h76.449l42.776 164.475z"  horiz-adv-x="1024" />

    
    <glyph glyph-name="Organizationmanagement" unicode="&#59032;" d="M330.465 324.924c28.692-9.261 55.065-25.014 77.318-46.51l49.876 83.127c-27.709 11.515-53.246 28.253-75.411 49.689l-51.783-86.306zM410.331 275.926c-0.841 0.841-1.695 1.663-2.548 2.488-22.253 21.498-48.624 37.249-77.318 46.51-19.686 6.354-40.459 9.663-61.744 9.663-53.495 0-103.787-20.832-141.61-58.661-37.818-37.823-58.646-88.11-58.646-141.595s20.827-103.77 58.646-141.594c37.823-37.829 88.115-58.661 141.61-58.661 53.495 0 103.786 20.832 141.61 58.66 37.819 37.824 58.647 88.11 58.647 141.595s-20.827 103.771-58.647 141.595zM804.663 320.483c-0.103 0-0.206-0.004-0.309-0.004-32.359-0.062-62.464-9.908-87.513-26.728-42.256-28.375-70.123-76.6-70.123-131.213 0-87.091 70.854-157.944 157.944-157.944 87.089 0 157.944 70.855 157.944 157.944s-70.853 157.945-157.943 157.945zM722.321 757.168c-45.818 45.818-106.731 71.050-171.525 71.050-64.795 0-125.71-25.234-171.526-71.050-45.813-45.814-71.043-106.727-71.043-171.516 0-64.788 25.23-125.701 71.043-171.516 0.982-0.982 1.982-1.943 2.979-2.907 22.164-21.435 47.701-38.173 75.411-49.689 29.127-12.105 60.643-18.454 93.136-18.454 44.47 0 87.112 11.888 124.3 34.157 16.996 10.178 32.854 22.521 47.225 36.892 26.191 26.2 46.504 58.278 58.79 94.085-4.85-26.573 12.253 24.111 12.253 77.432-0.001 64.789-25.231 125.703-71.043 171.517zM399.279 439.614v0zM743.607 424.057c-17.97-23.634-40.71-42.69-66.88-55.958 38.086 24.543 25.654 14.865 12.329 6.887l32.728-65.457c19.638 13.187 43.241 20.905 68.61 20.954l-46.787 93.574z"  horiz-adv-x="1024" />

    
    <glyph glyph-name="Insightdata" unicode="&#59033;" d="M638.793 484.7v90.422h-248.661v-170.835c62.817 45.687 138.231 81.99 219.35 81.99 9.861 0 19.633-0.554 29.312-1.578zM631.683 266.815c-6.697 3.328-14.218 5.248-22.202 5.248-27.627 0-50.037-22.409-50.037-50.037 0-27.627 22.41-50.061 50.037-50.061 7.984 0 15.504 1.922 22.202 5.253 16.479 8.195 27.837 25.165 27.837 44.809s-11.358 36.601-27.837 44.789zM213.135 222.025s39.417 58.677 103.992 120.732v329.592h-248.662v-669.903h248.661v98.859c-64.574 62.051-103.991 120.721-103.991 120.721zM962.236 165.709c-43.598-51.465-116.91-126.108-206.186-170.563h206.186v170.563zM962.236 278.342v500.102h-248.889v-311.234c108.487-39.031 198.519-129.409 248.889-188.868zM876.665 264.68c-38.15 45.035-106.343 113.49-188.513 143.052-18.196 6.547-37.073 11.196-56.468 13.248-6.724 0.761-14.518 1.196-22.414 1.196-61.228-0-118.349-27.497-165.928-62.102-20.308-14.77-38.876-30.827-55.295-46.604-48.911-47.001-78.766-91.445-78.766-91.445s29.856-44.439 78.766-91.437c16.419-15.777 34.989-31.835 55.295-46.604 14.054-10.223 28.94-19.817 44.526-28.273 37.181-20.171 78.325-33.837 121.614-33.837 39.216 0 76.672 11.208 111.013 28.309 67.62 33.67 123.148 90.206 156.169 129.187 21.106 24.914 33.021 42.655 33.021 42.655s-11.914 17.739-33.020 42.653zM688.151 124.797c-18.796-15.339-42.491-25.345-68.423-27.406 4.746 0.263-2.665-0.449-10.247-0.449-69.079 0-125.082 56.002-125.082 125.105 0 69.079 56.002 125.082 125.082 125.082 7.582 0 14.992-0.712 22.202-2.005 21.143-3.791 40.441-12.876 56.468-25.863 28.306-22.936 46.414-57.962 46.414-97.214 0-39.292-18.108-74.32-46.414-97.251z"  horiz-adv-x="1024" />

    
    <glyph glyph-name="Modulemanagement" unicode="&#59034;" d="M246.732 798.289h298.289v-298.289h-298.289zM663.179 798.289h298.289v-298.289h-298.289zM663.179 449.007h298.289v-298.289h-298.289zM67.335 449.007h477.685v-477.685h-477.685z"  horiz-adv-x="1024" />

    
    <glyph glyph-name="earnings" unicode="&#59035;" d="M416.743 716.144h-352.426v-179.373h205.749c29.825 73.572 81.336 136.012 146.677 179.373zM251.31 476.982h-127.166v-179.373h128.403c-7.176 29.626-11.074 60.533-11.074 92.362 0 29.921 3.472 59.016 9.837 87.012zM272.182 237.815h-186.918v-179.373h339.839c-67.685 42.492-121.494 105.031-152.921 179.373zM686.55 711.255c-17.423 2.879-35.288 4.448-53.526 4.448s-36.103-1.57-53.526-4.448c-46.165-7.627-89.052-24.921-126.507-49.777-54.39-36.095-97.267-88.070-122.094-149.312-12.709-30.473-21.015-65.782-23.102-102.753 2.191 29.681-0.7 5.462-0.7-19.444 0-26.495 3.244-52.221 9.218-76.882 4.155-17.152 9.593-33.801 16.344-49.773 26.16-61.883 70.951-113.941 127.292-149.312 50.162-31.491 109.468-49.77 173.074-49.77 179.992 0 325.928 145.847 325.928 325.736 0 161.673-117.882 295.757-272.401 321.285zM763.395 324.818v0.003c18.014 0 32.593-14.597 32.593-32.574 0-17.971-14.58-32.572-32.593-32.572h-97.775v-68.422c0-16.159-14.58-29.296-32.594-29.296-18.017 0-32.594 13.137-32.594 29.296v68.421h-97.779c-18.017 0-32.593 14.601-32.593 32.572 0 17.974 14.576 32.574 32.593 32.574h97.775v65.149h-97.775c-18.017 0-32.593 14.595-32.593 32.572 0 17.975 14.576 32.572 32.593 32.572h66.896l-62.504 116.697c-7.958 14.808-3.247 33.754 10.504 42.291 7.209 4.488 15.461 5.194 22.831 2.747 6.683-2.22 12.643-7.027 16.412-14.066l71.805-134.080c2.304-4.298 3.506-8.944 3.766-13.586h0.301c0.261 4.643 1.488 9.283 3.828 13.586l72.95 134.080c8.051 14.803 25.876 19.878 39.852 11.32 13.938-8.543 18.716-27.485 10.661-42.291l-63.471-116.696h66.91c18.017 0 32.593-14.597 32.593-32.572 0-17.978-14.576-32.572-32.593-32.572h-97.775v-65.151h97.776z"  horiz-adv-x="1024" />

    
    <glyph glyph-name="pie1" unicode="&#59036;" d="M549.285 424.039v403.866c223.045 0 403.851-180.82 403.851-403.866h-403.851zM465.731-63.367c-223.047 0-403.851 180.806-403.851 403.852s180.805 403.852 403.851 403.852v-403.852h403.851c0-223.047-180.805-403.852-403.851-403.852z"  horiz-adv-x="1024" />

    
    <glyph glyph-name="zanting1" unicode="&#59349;" d="M283.24466667 829.162l561.656-439.48-561.656-439.454z"  horiz-adv-x="1024" />

    
    <glyph glyph-name="treeexpansion-copy" unicode="&#59272;" d="M512 896c-282.752 0-512-229.248-512-512 0-282.816 229.248-512 512-512s512 229.184 512 512c0 282.752-229.248 512-512 512zM512-64c-247.36 0-448 200.512-448 448 0 247.424 200.64 448 448 448s448-200.576 448-448c0-247.488-200.64-448-448-448zM288 341.344h448c41.28 0 41.28 64 0 64h-448c-41.28-0.016-41.28-64 0-64zM544 141.344v448c0 41.28-64 41.28-64 0v-448c0-41.28 64-41.28 64 0z"  horiz-adv-x="1024" />

    
    <glyph glyph-name="treeretraction-copy" unicode="&#59273;" d="M512 896c-282.752 0-512-229.248-512-512 0-282.816 229.248-512 512-512s512 229.184 512 512c0 282.752-229.248 512-512 512zM512-64c-247.36 0-448 200.512-448 448 0 247.424 200.64 448 448 448s448-200.576 448-448c0-247.488-200.64-448-448-448zM288 341.334h448c41.28 0 41.28 64 0 64h-448c-41.28 0-41.28-64 0-64z"  horiz-adv-x="1024" />

    
    <glyph glyph-name="yanzhengma" unicode="&#58886;" d="M512.043 832c-97.856-75.349-201.856-127.851-381.056-127.851v-331.285c0.021-157.931 200.448-436.864 381.056-436.864 180.629 0 380.949 278.869 380.949 436.885v331.264c-179.989 0-283.179 52.437-380.949 127.851zM769.045 510.4l-272.789-272.789c-0.891-0.87-2.111-1.406-3.456-1.406s-2.565 0.537-3.457 1.407l-176.084 176.106c-0.859 0.892-1.387 2.107-1.387 3.445 0 1.349 0.537 2.573 1.41 3.468l34.495 34.474c0.88 0.877 2.094 1.42 3.435 1.42s2.555-0.543 3.435-1.42l138.197-138.197 234.859 234.837c0.871 0.88 2.078 1.425 3.413 1.425s2.543-0.545 3.413-1.425l34.496-34.496c0.898-0.87 1.456-2.087 1.456-3.434 0-1.337-0.549-2.546-1.434-3.413z"  horiz-adv-x="1024" />

    
    <glyph glyph-name="zanwuxiaoxi" unicode="&#58939;" d="M299.008-21.504l-55.296 135.168h-102.4c-32.768 0-59.392 26.624-59.392 59.392V730.112c0 32.768 26.624 59.392 61.44 59.392h739.328c32.768 0 59.392-26.624 59.392-59.392v-557.056c0-32.768-26.624-59.392-59.392-59.392H501.76l-202.752-135.168zM143.36 748.544c-10.24 0-20.48-8.192-20.48-18.432v-557.056c0-10.24 8.192-18.432 18.432-18.432h131.072l45.056-108.544 169.984 108.544H880.64c10.24 0 18.432 8.192 18.432 18.432V730.112c0 10.24-8.192 18.432-18.432 18.432H143.36zM358.4 461.824c-16.384 0-30.72 14.336-30.72 30.72v61.44c0 16.384 14.336 30.72 30.72 30.72s30.72-14.336 30.72-30.72v-61.44c0-16.384-14.336-30.72-30.72-30.72zM665.6 461.824c-16.384 0-30.72 14.336-30.72 30.72v61.44c0 16.384 14.336 30.72 30.72 30.72s30.72-14.336 30.72-30.72v-61.44c0-16.384-14.336-30.72-30.72-30.72zM430.08 279.552c6.144 0 10.24 2.048 14.336 6.144 16.384 16.384 40.96 28.672 67.584 28.672s51.2-12.288 67.584-28.672c4.096-4.096 8.192-6.144 14.336-6.144 18.432 0 26.624 20.48 14.336 34.816-24.576 24.576-59.392 43.008-96.256 43.008s-71.68-18.432-96.256-43.008c-12.288-12.288-4.096-34.816 14.336-34.816z"  horiz-adv-x="1024" />

    
    <glyph glyph-name="feedback" unicode="&#59037;" d="M941.465 285.617l0.010-0.009-83.444 77.832-14.813 13.694-14.723-13.694-296.571-276.506-1.223-5.724-30.565-125.923 144.859 26.25 4.502 4.13 306.882 286.070-14.914 13.88zM624.376 17.439v0l-67.409-12.565 13.406 62.914 210.301 196.054 53.918-50.35-210.216-196.053zM864.227 240.971l-53.92 50.35 33.098 30.85 53.917-50.35-33.095-30.85zM814.807 420.426l0.003 332.378s-9.006 66.486-72.011 66.486h-672.091v-686.905s9.007-55.887 96.013-57.198c87.005-1.312 264.037 0 264.037 0-10.502-1.306 384.050 345.238 384.050 345.238zM356.226 555.251h-48.011c0 84.858 44.928 144.021 144.022 144.021l0.004 0.018c76.875 0 119.272-49.702 119.272-120.677 0-35.544-20.059-70.983-60.193-106.52-26.825-24.659-35.066-45.468-35.066-60.851v-48.011h-48.010v48.011c0 27.745 6.843 52.422 45.376 86.354 33.452 30.852 50.151 57.84 50.151 81.003-1.688 44.72-23.066 71.162-71.534 72.664-55.227-1.493-94.429-35.819-96.012-96.012zM428.235 267.223v48.013h48.011v-48.013h-48.011z"  horiz-adv-x="1024" />

    
    <glyph glyph-name="xinjian" unicode="&#58892;" d="M910.2 682.7H263.1c-27.4 0-49.8-22.4-49.8-49.8v-647.1c0-27.4 22.4-49.8 49.8-49.8h647.1c27.4 0 49.8 22.4 49.8 49.8V632.9c0 27.4-22.4 49.8-49.8 49.8zM785.8 259.6H636.4v-149.3h-99.6V259.6H387.6v99.6h149.3V508.4h99.6v-149.3h149.3v-99.5zM113.8 782.2h597.3v-49.8h49.8v49.8c0 27.4-22.4 49.8-49.8 49.8H113.8C86.4 832 64 809.6 64 782.2v-597.3c0-27.4 22.4-49.8 49.8-49.8h49.8v49.8h-49.8V782.2z"  horiz-adv-x="1024" />

    
    <glyph glyph-name="traffic" unicode="&#59038;" d="M151.745 447.193h179.857v-358.429h-179.857v358.429zM420.246 805.623h179.857v-716.859h-179.857v716.859zM688.746 678.939h179.857v-590.173h-179.857v590.173zM152.899 25.445h-89.928v-89.927h896.713v89.927z"  horiz-adv-x="1024" />

    
    <glyph glyph-name="creative" unicode="&#59039;" d="M611.501-2.767h-200.579c-12.781 0-23.142-10.363-23.142-23.144v-15.427c0-12.783 10.361-23.145 23.142-23.145h200.579c12.781 0 23.145 10.363 23.145 23.145v15.428c0 12.781-10.364 23.143-23.145 23.143zM611.501 89.809h-200.579c-12.781 0-23.142-10.363-23.142-23.144v-15.427c0-12.783 10.361-23.146 23.142-23.146h200.579c12.781 0 23.145 10.363 23.145 23.146v15.427c0 12.781-10.364 23.144-23.145 23.144zM634.291 494.134c-5.062 60.419-37.607 86.133-97.964 89.407h-86.834v-169.571l89.422 0.432c58.618 3.234 90.314 20.962 95.376 79.732zM881.508 460.108c0 204.512-165.788 370.302-370.298 370.302s-370.297-165.79-370.297-370.302c0-115.623 91.794-209.001 186.608-268.334-0.926-2.801-1.46-6.025-1.46-9.373 0-0.006 0-0.012 0-0.017l-0-30.857c0-17.044 13.817-30.859 30.858-30.859h30.86v501.447c0 12.781 10.361 23.144 23.142 23.144h123.161c91.359-6.509 155.996-62.185 162.76-151.124-8.463-88.976-72.54-135.56-161.176-142.030h-86.175v-231.436h216.009c17.043 0 30.86 13.814 30.86 30.859v30.858c0 3.399-0.559 6.667-1.574 9.727 94.776 59.349 186.722 152.593 186.722 267.997z"  horiz-adv-x="1024" />

    
    <glyph glyph-name="frequency" unicode="&#59040;" d="M693.037 778.552h-363.805s-45.499 0-45.499-67.119h454.805c-0.001 67.119-45.501 67.119-45.501 67.119zM829.499 620.060c0 45.688-45.454 45.688-45.454 45.688h-545.774s-45.454 0-45.454-45.688v-45.687h636.683v45.687zM920.414 542.571l-26.862 27.046v-72.731h-764.792v72.731l-26.907-27.046c-26.912-27.046-46.192-34.265-35.362-91.372 10.78-56.926 63.002-368.961 70.77-411.176 8.494-46.33 55.6-45.688 55.6-45.688h636.682s47.062-0.644 55.599 45.688c7.773 42.214 59.947 354.25 70.77 411.176 10.74 57.107-8.538 64.327-35.497 91.372zM771.5 258.946c0-36.055-29.225-65.278-65.276-65.278h-390.133c-36.049 0-65.275 29.224-65.275 65.278v129.978h65.085v-130.171h390.514v130.171h65.085l-0.001-129.978z"  horiz-adv-x="1024" />

    
    <glyph glyph-name="comments" unicode="&#59041;" d="M927.554 753.375h-829.245c-17.612 0-31.893-14.285-31.893-31.893v-510.308c0-17.612 14.282-31.89 31.893-31.89h241.945l150.128-150.125c6.229-6.232 14.387-9.345 22.549-9.345s16.32 3.112 22.55 9.345l150.128 150.124h241.945c17.612 0 31.893 14.279 31.893 31.89v510.308c0 17.609-14.282 31.894-31.893 31.894zM895.659 243.069h-223.259c-8.808-0.002-16.781-3.574-22.551-9.347l-136.919-136.915-136.921 136.917c-5.772 5.773-13.746 9.344-22.554 9.345l-223.255-0v446.514h765.458v-446.514h0.001zM225.884 466.325c0-35.229 28.559-63.789 63.789-63.789s63.788 28.559 63.788 63.789-28.559 63.788-63.788 63.788-63.789-28.558-63.789-63.788zM449.142 466.325c0-35.229 28.559-63.788 63.788-63.788s63.789 28.559 63.789 63.788-28.559 63.788-63.789 63.788-63.788-28.558-63.788-63.788zM672.401 466.325c0-35.229 28.559-63.788 63.788-63.788 35.229 0 63.789 28.559 63.789 63.788s-28.559 63.788-63.789 63.788c-35.228 0-63.788-28.558-63.788-63.788z"  horiz-adv-x="1024" />

    
    </font>
</defs>
</svg>
